G04 start of page 11 for group -4063 idx -4063 *
G04 Title: (unknown), componentmask *
G04 Creator: pcb 20110918 *
G04 CreationDate: Tue 10 Jan 2012 07:33:53 PM GMT UTC *
G04 For: andy *
G04 Format: Gerber/RS-274X *
G04 PCB-Dimensions: 279528 153543 *
G04 PCB-Coordinate-Origin: lower left *
%MOIN*%
%FSLAX25Y25*%
%LNTOPMASK*%
%ADD88R,0.0454X0.0454*%
%ADD87R,0.1000X0.1000*%
%ADD86R,0.0660X0.0660*%
%ADD85R,0.0187X0.0187*%
%ADD84R,0.0300X0.0300*%
%ADD83R,0.0572X0.0572*%
%ADD82R,0.0317X0.0317*%
%ADD81R,0.0612X0.0612*%
%ADD80R,0.0415X0.0415*%
%ADD79R,0.0355X0.0355*%
%ADD78R,0.0494X0.0494*%
%ADD77R,0.0376X0.0376*%
%ADD76C,0.0660*%
%ADD75C,0.0001*%
G54D75*G36*
X86700Y146843D02*Y140243D01*
X93300D01*
Y146843D01*
X86700D01*
G37*
G54D76*X100000Y143543D03*
G54D75*G36*
X89200Y109343D02*Y102743D01*
X95800D01*
Y109343D01*
X89200D01*
G37*
G54D76*X102500Y106043D03*
X112500D03*
X122500D03*
G54D75*G36*
X139200Y136843D02*Y130243D01*
X145800D01*
Y136843D01*
X139200D01*
G37*
G54D76*X142500Y143543D03*
X152500Y133543D03*
Y143543D03*
X162500Y133543D03*
Y143543D03*
G54D75*G36*
X174200Y146843D02*Y140243D01*
X180800D01*
Y146843D01*
X174200D01*
G37*
G54D76*X187500Y143543D03*
X197500D03*
X207500D03*
X217500D03*
X227500D03*
X237500D03*
X247500D03*
G54D75*G36*
X256700Y146843D02*Y140243D01*
X263300D01*
Y146843D01*
X256700D01*
G37*
G54D76*X270000Y143543D03*
X260000Y133543D03*
X270000D03*
X260000Y123543D03*
X270000D03*
X260000Y113543D03*
X270000D03*
X260000Y103543D03*
X270000D03*
G54D77*X61378Y113544D02*X63347D01*
X61378Y117874D02*X63347D01*
X61378Y122205D02*X63347D01*
X61378Y126536D02*X63347D01*
X61378Y130867D02*X63347D01*
G54D78*X61969Y107442D02*X62757D01*
G54D77*X61378Y135197D02*X63347D01*
X61378Y139528D02*X63347D01*
X61378Y143859D02*X63347D01*
X61378Y148190D02*X63347D01*
G54D79*X124882Y136535D02*Y135551D01*
X130000Y136535D02*Y135551D01*
X124882Y129035D02*Y128051D01*
X130000Y129035D02*Y128051D01*
X124941Y121535D02*Y120551D01*
X130059Y121535D02*Y120551D01*
G54D80*X21024Y151732D02*Y150946D01*
G54D78*X45040Y151339D02*X45828D01*
X1142Y151338D02*X8230D01*
G54D81*X1731Y98189D02*X4094D01*
G54D82*X35079Y79960D02*Y70708D01*
G54D83*X100690Y18798D02*Y13288D01*
X112500Y18798D02*Y13288D01*
Y33798D02*Y28288D01*
X100690Y33798D02*Y28288D01*
G54D84*X106500Y56043D02*X113000D01*
X106500Y86043D02*X113000D01*
X106500Y81043D02*X113000D01*
X106500Y76043D02*X113000D01*
X106500Y71043D02*X113000D01*
X106500Y66043D02*X113000D01*
X106500Y61043D02*X113000D01*
G54D79*X92500Y81535D02*Y80551D01*
X97618Y81535D02*Y80551D01*
G54D82*X35079Y16378D02*Y7126D01*
X72033Y26043D02*X87043D01*
X72033Y31043D02*X87043D01*
X72033Y36043D02*X87043D01*
X72033Y41043D02*X87043D01*
X72033Y46043D02*X87043D01*
X72033Y51043D02*X87043D01*
X72033Y56043D02*X87043D01*
X72033Y61043D02*X87043D01*
G54D85*X148102Y76595D02*X152528D01*
X148102Y73445D02*X152528D01*
X148102Y70295D02*X152528D01*
X159252Y63571D02*Y59145D01*
G54D79*X137559Y46535D02*Y45551D01*
X132441Y46535D02*Y45551D01*
G54D86*X139140Y15661D02*Y11425D01*
G54D79*X127500Y16535D02*Y15551D01*
X122382Y16535D02*Y15551D01*
G54D86*X150860Y15661D02*Y11425D01*
G54D87*X166800Y11043D02*X180800D01*
G54D79*X167500Y31535D02*Y30551D01*
X172618Y31535D02*Y30551D01*
X172441Y39035D02*Y38051D01*
X177559Y39035D02*Y38051D01*
G54D85*X148102Y92343D02*X152528D01*
X148102Y89193D02*X152528D01*
X148102Y86043D02*X152528D01*
X148102Y82894D02*X152528D01*
X148102Y101791D02*X152528D01*
X148102Y98642D02*X152528D01*
X148102Y95492D02*X152528D01*
X148102Y79744D02*X152528D01*
X162401Y63571D02*Y59145D01*
X165551Y63571D02*Y59145D01*
X168700Y63571D02*Y59145D01*
X171850Y63571D02*Y59145D01*
X175000Y63571D02*Y59145D01*
X178149Y63571D02*Y59145D01*
X181299Y63571D02*Y59145D01*
X184448Y63571D02*Y59145D01*
X187598Y63571D02*Y59145D01*
X190748Y63571D02*Y59145D01*
G54D84*X127000Y56043D02*X133500D01*
X127000Y61043D02*X133500D01*
X127000Y66043D02*X133500D01*
X127000Y71043D02*X133500D01*
X127000Y76043D02*X133500D01*
X127000Y81043D02*X133500D01*
X127000Y86043D02*X133500D01*
G54D85*X197472Y70295D02*X201898D01*
X197472Y73444D02*X201898D01*
X197472Y76594D02*X201898D01*
G54D86*X230860Y70661D02*Y66425D01*
X219140Y70661D02*Y66425D01*
G54D85*X197472Y79743D02*X201898D01*
X197472Y82893D02*X201898D01*
X197472Y86043D02*X201898D01*
X197472Y89192D02*X201898D01*
X197472Y92342D02*X201898D01*
X197472Y95491D02*X201898D01*
X197472Y98641D02*X201898D01*
X197472Y101791D02*X201898D01*
X190748Y112941D02*Y108515D01*
G54D86*X230860Y110661D02*Y106425D01*
X219140Y110661D02*Y106425D01*
G54D85*X187599Y112941D02*Y108515D01*
X184449Y112941D02*Y108515D01*
X181300Y112941D02*Y108515D01*
X178150Y112941D02*Y108515D01*
X175000Y112941D02*Y108515D01*
X171851Y112941D02*Y108515D01*
X168701Y112941D02*Y108515D01*
X165552Y112941D02*Y108515D01*
X162402Y112941D02*Y108515D01*
X159252Y112941D02*Y108515D01*
G54D87*X204200Y11043D02*X218200D01*
G54D88*X233150Y9643D02*X235950D01*
G54D86*X230860Y50661D02*Y46425D01*
X219140Y50661D02*Y46425D01*
G54D88*X269050Y27443D02*X271850D01*
X269050Y9643D02*X271850D01*
G54D79*X242441Y49035D02*Y48051D01*
X247559Y49035D02*Y48051D01*
X217500Y31535D02*Y30551D01*
X212382Y31535D02*Y30551D01*
G54D88*X233150Y27443D02*X235950D01*
G54D79*X242500Y109035D02*Y108051D01*
X247618Y109035D02*Y108051D01*
G54D86*X230860Y90661D02*Y86425D01*
X219140Y90661D02*Y86425D01*
G54D79*X242500Y89035D02*Y88051D01*
Y69035D02*Y68051D01*
X247618Y69035D02*Y68051D01*
X267441Y89035D02*Y88051D01*
X272559Y89035D02*Y88051D01*
X247618Y89035D02*Y88051D01*
X267441Y81535D02*Y80551D01*
X272559Y81535D02*Y80551D01*
M02*
