M48
INCH
T74C0.035
T73C0.020
T72C0.038
%
T73
X018750Y009354
X015500Y011104
X015750Y009354
X011750Y013604
X011750Y012854
X010250Y013104
X010750Y013604
X014250Y007854
X014750Y010854
X014250Y009604
X014250Y009104
X013500Y011104
X011750Y011604
X023750Y007354
X023750Y008354
X017250Y007104
X019000Y007104
X020750Y006854
X019750Y006354
X021100Y007854
X019250Y003604
X019250Y002604
X019250Y001354
X011000Y005104
X009500Y007354
X010250Y005104
X010000Y007104
X014000Y006604
X009250Y003604
X012750Y004604
X014250Y007104
X016750Y003854
X016250Y003104
X014250Y004604
X016140Y004654
X016600Y004794
X016850Y005184
T74
X008750Y012604
X016500Y007854
X026250Y009354
X024000Y003604
X020250Y005854
X021000Y004854
X021000Y005854
X020750Y002604
X026750Y003604
X021000Y004104
X009500Y006104
X012000Y003854
T72
X009000Y014354
X010000Y014354
X009250Y010604
X010250Y010604
X011250Y010604
X012250Y010604
X014250Y013354
X014250Y014354
X015250Y013354
X015250Y014354
X016250Y013354
X016250Y014354
X017750Y014354
X018750Y014354
X019750Y014354
X020750Y014354
X021750Y014354
X022750Y014354
X023750Y014354
X024750Y014354
X026000Y014354
X027000Y014354
X026000Y013354
X027000Y013354
X026000Y012354
X027000Y012354
X026000Y011354
X027000Y011354
X026000Y010354
X027000Y010354
M30
