G04 start of page 5 for group 3 idx 3 *
G04 Title: (unknown), GND *
G04 Creator: pcb 20110918 *
G04 CreationDate: Tue 10 Jan 2012 07:33:53 PM GMT UTC *
G04 For: andy *
G04 Format: Gerber/RS-274X *
G04 PCB-Dimensions: 279528 153543 *
G04 PCB-Coordinate-Origin: lower left *
%MOIN*%
%FSLAX25Y25*%
%LNGROUP3*%
%ADD47C,0.0380*%
%ADD46C,0.0350*%
%ADD45C,0.0200*%
%ADD44C,0.0360*%
%ADD43C,0.0600*%
%ADD42C,0.0001*%
G54D42*G36*
X87000Y146543D02*Y140543D01*
X93000D01*
Y146543D01*
X87000D01*
G37*
G54D43*X100000Y143543D03*
G54D42*G36*
X89500Y109043D02*Y103043D01*
X95500D01*
Y109043D01*
X89500D01*
G37*
G54D43*X102500Y106043D03*
X112500D03*
X122500D03*
G54D42*G36*
X139500Y136543D02*Y130543D01*
X145500D01*
Y136543D01*
X139500D01*
G37*
G54D43*X142500Y143543D03*
X152500Y133543D03*
Y143543D03*
X162500Y133543D03*
Y143543D03*
G54D42*G36*
X174500Y146543D02*Y140543D01*
X180500D01*
Y146543D01*
X174500D01*
G37*
G54D43*X187500Y143543D03*
X197500D03*
X207500D03*
X217500D03*
X227500D03*
X237500D03*
X247500D03*
G54D42*G36*
X257000Y146543D02*Y140543D01*
X263000D01*
Y146543D01*
X257000D01*
G37*
G54D43*X270000Y143543D03*
X260000Y133543D03*
X270000D03*
X260000Y123543D03*
X270000D03*
X260000Y113543D03*
X270000D03*
X260000Y103543D03*
X270000D03*
G54D44*X187500Y93543D03*
X155000Y111043D03*
X157500Y93543D03*
X117500Y136043D03*
Y128543D03*
G54D43*X87500Y126043D03*
G54D44*X102500Y131043D03*
X107500Y136043D03*
G54D43*X165000Y78543D03*
G54D44*X142500D03*
X147500Y108543D03*
X142500Y96043D03*
Y91043D03*
X135000Y111043D03*
X117500Y116043D03*
G54D43*X262500Y93543D03*
X240000Y36043D03*
G54D44*X237500Y73543D03*
Y83543D03*
X172500Y71043D03*
G54D43*X202500Y58543D03*
X210000Y48543D03*
G54D44*X190000Y71043D03*
X207500Y68543D03*
X197500Y63543D03*
X211000Y78543D03*
G54D43*X210000Y58543D03*
X207500Y26043D03*
X267500Y36043D03*
G54D44*X192500D03*
Y26043D03*
Y13543D03*
G54D43*X210000Y41043D03*
X95000Y61043D03*
G54D44*X110000Y51043D03*
X95000Y73543D03*
X102500Y51043D03*
X100000Y71043D03*
X140000Y66043D03*
G54D43*X120000Y38543D03*
G54D44*X92500Y36043D03*
X127500Y46043D03*
X142500Y71043D03*
X167500Y38543D03*
X162500Y31043D03*
X142500Y46043D03*
X161400Y46543D03*
X166000Y47943D03*
X168500Y51843D03*
G54D45*G54D46*G54D45*G54D46*G54D45*G54D46*G54D45*G54D46*G54D45*G54D46*G54D45*G54D46*G54D45*G54D46*G54D45*G54D47*M02*
