G04 start of page 17 for group -3984 idx -3984 *
G04 Title: (unknown), fab *
G04 Creator: pcb 20110918 *
G04 CreationDate: Tue 10 Jan 2012 07:33:53 PM GMT UTC *
G04 For: andy *
G04 Format: Gerber/RS-274X *
G04 PCB-Dimensions: 279528 153543 *
G04 PCB-Coordinate-Origin: lower left *
%MOIN*%
%FSLAX25Y25*%
%LNFAB*%
%ADD111C,0.0100*%
%ADD110C,0.0075*%
%ADD109C,0.0060*%
%ADD108C,0.0001*%
G54D108*G36*
X88800Y145309D02*X91766Y142343D01*
X91200Y141778D01*
X88234Y144743D01*
X88800Y145309D01*
G37*
G36*
X88234Y142343D02*X91200Y145309D01*
X91766Y144743D01*
X88800Y141778D01*
X88234Y142343D01*
G37*
G36*
X98800Y145309D02*X101766Y142343D01*
X101200Y141778D01*
X98234Y144743D01*
X98800Y145309D01*
G37*
G36*
X98234Y142343D02*X101200Y145309D01*
X101766Y144743D01*
X98800Y141778D01*
X98234Y142343D01*
G37*
G36*
X258800Y145309D02*X261766Y142343D01*
X261200Y141778D01*
X258234Y144743D01*
X258800Y145309D01*
G37*
G36*
X258234Y142343D02*X261200Y145309D01*
X261766Y144743D01*
X258800Y141778D01*
X258234Y142343D01*
G37*
G36*
X268800Y145309D02*X271766Y142343D01*
X271200Y141778D01*
X268234Y144743D01*
X268800Y145309D01*
G37*
G36*
X268234Y142343D02*X271200Y145309D01*
X271766Y144743D01*
X268800Y141778D01*
X268234Y142343D01*
G37*
G36*
X258800Y135309D02*X261766Y132343D01*
X261200Y131778D01*
X258234Y134743D01*
X258800Y135309D01*
G37*
G36*
X258234Y132343D02*X261200Y135309D01*
X261766Y134743D01*
X258800Y131778D01*
X258234Y132343D01*
G37*
G36*
X268800Y135309D02*X271766Y132343D01*
X271200Y131778D01*
X268234Y134743D01*
X268800Y135309D01*
G37*
G36*
X268234Y132343D02*X271200Y135309D01*
X271766Y134743D01*
X268800Y131778D01*
X268234Y132343D01*
G37*
G36*
X258800Y125309D02*X261766Y122343D01*
X261200Y121778D01*
X258234Y124743D01*
X258800Y125309D01*
G37*
G36*
X258234Y122343D02*X261200Y125309D01*
X261766Y124743D01*
X258800Y121778D01*
X258234Y122343D01*
G37*
G36*
X268800Y125309D02*X271766Y122343D01*
X271200Y121778D01*
X268234Y124743D01*
X268800Y125309D01*
G37*
G36*
X268234Y122343D02*X271200Y125309D01*
X271766Y124743D01*
X268800Y121778D01*
X268234Y122343D01*
G37*
G36*
X258800Y115309D02*X261766Y112343D01*
X261200Y111778D01*
X258234Y114743D01*
X258800Y115309D01*
G37*
G36*
X258234Y112343D02*X261200Y115309D01*
X261766Y114743D01*
X258800Y111778D01*
X258234Y112343D01*
G37*
G36*
X268800Y115309D02*X271766Y112343D01*
X271200Y111778D01*
X268234Y114743D01*
X268800Y115309D01*
G37*
G36*
X268234Y112343D02*X271200Y115309D01*
X271766Y114743D01*
X268800Y111778D01*
X268234Y112343D01*
G37*
G36*
X258800Y105309D02*X261766Y102343D01*
X261200Y101778D01*
X258234Y104743D01*
X258800Y105309D01*
G37*
G36*
X258234Y102343D02*X261200Y105309D01*
X261766Y104743D01*
X258800Y101778D01*
X258234Y102343D01*
G37*
G36*
X268800Y105309D02*X271766Y102343D01*
X271200Y101778D01*
X268234Y104743D01*
X268800Y105309D01*
G37*
G36*
X268234Y102343D02*X271200Y105309D01*
X271766Y104743D01*
X268800Y101778D01*
X268234Y102343D01*
G37*
G36*
X141300Y135309D02*X144266Y132343D01*
X143700Y131778D01*
X140734Y134743D01*
X141300Y135309D01*
G37*
G36*
X140734Y132343D02*X143700Y135309D01*
X144266Y134743D01*
X141300Y131778D01*
X140734Y132343D01*
G37*
G36*
X141300Y145309D02*X144266Y142343D01*
X143700Y141778D01*
X140734Y144743D01*
X141300Y145309D01*
G37*
G36*
X140734Y142343D02*X143700Y145309D01*
X144266Y144743D01*
X141300Y141778D01*
X140734Y142343D01*
G37*
G36*
X151300Y135309D02*X154266Y132343D01*
X153700Y131778D01*
X150734Y134743D01*
X151300Y135309D01*
G37*
G36*
X150734Y132343D02*X153700Y135309D01*
X154266Y134743D01*
X151300Y131778D01*
X150734Y132343D01*
G37*
G36*
X151300Y145309D02*X154266Y142343D01*
X153700Y141778D01*
X150734Y144743D01*
X151300Y145309D01*
G37*
G36*
X150734Y142343D02*X153700Y145309D01*
X154266Y144743D01*
X151300Y141778D01*
X150734Y142343D01*
G37*
G36*
X161300Y135309D02*X164266Y132343D01*
X163700Y131778D01*
X160734Y134743D01*
X161300Y135309D01*
G37*
G36*
X160734Y132343D02*X163700Y135309D01*
X164266Y134743D01*
X161300Y131778D01*
X160734Y132343D01*
G37*
G36*
X161300Y145309D02*X164266Y142343D01*
X163700Y141778D01*
X160734Y144743D01*
X161300Y145309D01*
G37*
G36*
X160734Y142343D02*X163700Y145309D01*
X164266Y144743D01*
X161300Y141778D01*
X160734Y142343D01*
G37*
G36*
X176300Y145309D02*X179266Y142343D01*
X178700Y141778D01*
X175734Y144743D01*
X176300Y145309D01*
G37*
G36*
X175734Y142343D02*X178700Y145309D01*
X179266Y144743D01*
X176300Y141778D01*
X175734Y142343D01*
G37*
G36*
X186300Y145309D02*X189266Y142343D01*
X188700Y141778D01*
X185734Y144743D01*
X186300Y145309D01*
G37*
G36*
X185734Y142343D02*X188700Y145309D01*
X189266Y144743D01*
X186300Y141778D01*
X185734Y142343D01*
G37*
G36*
X196300Y145309D02*X199266Y142343D01*
X198700Y141778D01*
X195734Y144743D01*
X196300Y145309D01*
G37*
G36*
X195734Y142343D02*X198700Y145309D01*
X199266Y144743D01*
X196300Y141778D01*
X195734Y142343D01*
G37*
G36*
X206300Y145309D02*X209266Y142343D01*
X208700Y141778D01*
X205734Y144743D01*
X206300Y145309D01*
G37*
G36*
X205734Y142343D02*X208700Y145309D01*
X209266Y144743D01*
X206300Y141778D01*
X205734Y142343D01*
G37*
G36*
X216300Y145309D02*X219266Y142343D01*
X218700Y141778D01*
X215734Y144743D01*
X216300Y145309D01*
G37*
G36*
X215734Y142343D02*X218700Y145309D01*
X219266Y144743D01*
X216300Y141778D01*
X215734Y142343D01*
G37*
G36*
X226300Y145309D02*X229266Y142343D01*
X228700Y141778D01*
X225734Y144743D01*
X226300Y145309D01*
G37*
G36*
X225734Y142343D02*X228700Y145309D01*
X229266Y144743D01*
X226300Y141778D01*
X225734Y142343D01*
G37*
G36*
X236300Y145309D02*X239266Y142343D01*
X238700Y141778D01*
X235734Y144743D01*
X236300Y145309D01*
G37*
G36*
X235734Y142343D02*X238700Y145309D01*
X239266Y144743D01*
X236300Y141778D01*
X235734Y142343D01*
G37*
G36*
X246300Y145309D02*X249266Y142343D01*
X248700Y141778D01*
X245734Y144743D01*
X246300Y145309D01*
G37*
G36*
X245734Y142343D02*X248700Y145309D01*
X249266Y144743D01*
X246300Y141778D01*
X245734Y142343D01*
G37*
G36*
X91300Y107809D02*X94266Y104843D01*
X93700Y104278D01*
X90734Y107243D01*
X91300Y107809D01*
G37*
G36*
X90734Y104843D02*X93700Y107809D01*
X94266Y107243D01*
X91300Y104278D01*
X90734Y104843D01*
G37*
G36*
X101300Y107809D02*X104266Y104843D01*
X103700Y104278D01*
X100734Y107243D01*
X101300Y107809D01*
G37*
G36*
X100734Y104843D02*X103700Y107809D01*
X104266Y107243D01*
X101300Y104278D01*
X100734Y104843D01*
G37*
G36*
X111300Y107809D02*X114266Y104843D01*
X113700Y104278D01*
X110734Y107243D01*
X111300Y107809D01*
G37*
G36*
X110734Y104843D02*X113700Y107809D01*
X114266Y107243D01*
X111300Y104278D01*
X110734Y104843D01*
G37*
G36*
X121300Y107809D02*X124266Y104843D01*
X123700Y104278D01*
X120734Y107243D01*
X121300Y107809D01*
G37*
G36*
X120734Y104843D02*X123700Y107809D01*
X124266Y107243D01*
X121300Y104278D01*
X120734Y104843D01*
G37*
G36*
X13800Y181559D02*X16766Y178593D01*
X16200Y178028D01*
X13234Y180993D01*
X13800Y181559D01*
G37*
G36*
X13234Y178593D02*X16200Y181559D01*
X16766Y180993D01*
X13800Y178028D01*
X13234Y178593D01*
G37*
G54D109*X135000Y182043D02*X136500Y179043D01*
X138000Y182043D01*
X136500Y179043D02*Y176043D01*
X139800Y179343D02*X142050D01*
X139800Y176043D02*X142800D01*
X139800Y182043D02*Y176043D01*
Y182043D02*X142800D01*
X147600D02*X148350Y181293D01*
X145350Y182043D02*X147600D01*
X144600Y181293D02*X145350Y182043D01*
X144600Y181293D02*Y179793D01*
X145350Y179043D01*
X147600D01*
X148350Y178293D01*
Y176793D01*
X147600Y176043D02*X148350Y176793D01*
X145350Y176043D02*X147600D01*
X144600Y176793D02*X145350Y176043D01*
X98000Y181293D02*X98750Y182043D01*
X100250D01*
X101000Y181293D01*
X100250Y176043D02*X101000Y176793D01*
X98750Y176043D02*X100250D01*
X98000Y176793D02*X98750Y176043D01*
Y179343D02*X100250D01*
X101000Y181293D02*Y180093D01*
Y178593D02*Y176793D01*
Y178593D02*X100250Y179343D01*
X101000Y180093D02*X100250Y179343D01*
X102800Y176793D02*X103550Y176043D01*
X102800Y181293D02*Y176793D01*
Y181293D02*X103550Y182043D01*
X105050D01*
X105800Y181293D01*
Y176793D01*
X105050Y176043D02*X105800Y176793D01*
X103550Y176043D02*X105050D01*
X102800Y177543D02*X105800Y180543D01*
X45000Y176793D02*X45750Y176043D01*
X45000Y181293D02*Y176793D01*
Y181293D02*X45750Y182043D01*
X47250D01*
X48000Y181293D01*
Y176793D01*
X47250Y176043D02*X48000Y176793D01*
X45750Y176043D02*X47250D01*
X45000Y177543D02*X48000Y180543D01*
X49800Y176043D02*X50550D01*
X52350Y176793D02*X53100Y176043D01*
X52350Y181293D02*Y176793D01*
Y181293D02*X53100Y182043D01*
X54600D01*
X55350Y181293D01*
Y176793D01*
X54600Y176043D02*X55350Y176793D01*
X53100Y176043D02*X54600D01*
X52350Y177543D02*X55350Y180543D01*
X57150Y181293D02*X57900Y182043D01*
X59400D01*
X60150Y181293D01*
X59400Y176043D02*X60150Y176793D01*
X57900Y176043D02*X59400D01*
X57150Y176793D02*X57900Y176043D01*
Y179343D02*X59400D01*
X60150Y181293D02*Y180093D01*
Y178593D02*Y176793D01*
Y178593D02*X59400Y179343D01*
X60150Y180093D02*X59400Y179343D01*
X61950Y176793D02*X62700Y176043D01*
X61950Y177993D02*Y176793D01*
Y177993D02*X63000Y179043D01*
X63900D01*
X64950Y177993D01*
Y176793D01*
X64200Y176043D02*X64950Y176793D01*
X62700Y176043D02*X64200D01*
X61950Y180093D02*X63000Y179043D01*
X61950Y181293D02*Y180093D01*
Y181293D02*X62700Y182043D01*
X64200D01*
X64950Y181293D01*
Y180093D01*
X63900Y179043D02*X64950Y180093D01*
X262500Y95143D02*Y91943D01*
X260900Y93543D02*X264100D01*
X240000Y37643D02*Y34443D01*
X238400Y36043D02*X241600D01*
X87500Y127643D02*Y124443D01*
X85900Y126043D02*X89100D01*
X210000Y42643D02*Y39443D01*
X208400Y41043D02*X211600D01*
X210000Y60143D02*Y56943D01*
X208400Y58543D02*X211600D01*
X210000Y50143D02*Y46943D01*
X208400Y48543D02*X211600D01*
X120000Y40143D02*Y36943D01*
X118400Y38543D02*X121600D01*
X95000Y62643D02*Y59443D01*
X93400Y61043D02*X96600D01*
X207500Y27643D02*Y24443D01*
X205900Y26043D02*X209100D01*
X267500Y37643D02*Y34443D01*
X265900Y36043D02*X269100D01*
X202500Y60143D02*Y56943D01*
X200900Y58543D02*X204100D01*
X165000Y80143D02*Y76943D01*
X163400Y78543D02*X166600D01*
X15000Y196393D02*Y193193D01*
X13400Y194793D02*X16600D01*
X135000Y197043D02*X136500Y194043D01*
X138000Y197043D01*
X136500Y194043D02*Y191043D01*
X139800Y194343D02*X142050D01*
X139800Y191043D02*X142800D01*
X139800Y197043D02*Y191043D01*
Y197043D02*X142800D01*
X147600D02*X148350Y196293D01*
X145350Y197043D02*X147600D01*
X144600Y196293D02*X145350Y197043D01*
X144600Y196293D02*Y194793D01*
X145350Y194043D01*
X147600D01*
X148350Y193293D01*
Y191793D01*
X147600Y191043D02*X148350Y191793D01*
X145350Y191043D02*X147600D01*
X144600Y191793D02*X145350Y191043D01*
X98000Y195843D02*X99200Y197043D01*
Y191043D01*
X98000D02*X100250D01*
X102050Y196293D02*X102800Y197043D01*
X105050D01*
X105800Y196293D01*
Y194793D01*
X102050Y191043D02*X105800Y194793D01*
X102050Y191043D02*X105800D01*
X45000Y191793D02*X45750Y191043D01*
X45000Y196293D02*Y191793D01*
Y196293D02*X45750Y197043D01*
X47250D01*
X48000Y196293D01*
Y191793D01*
X47250Y191043D02*X48000Y191793D01*
X45750Y191043D02*X47250D01*
X45000Y192543D02*X48000Y195543D01*
X49800Y191043D02*X50550D01*
X52350Y191793D02*X53100Y191043D01*
X52350Y196293D02*Y191793D01*
Y196293D02*X53100Y197043D01*
X54600D01*
X55350Y196293D01*
Y191793D01*
X54600Y191043D02*X55350Y191793D01*
X53100Y191043D02*X54600D01*
X52350Y192543D02*X55350Y195543D01*
X57150Y196293D02*X57900Y197043D01*
X59400D01*
X60150Y196293D01*
X59400Y191043D02*X60150Y191793D01*
X57900Y191043D02*X59400D01*
X57150Y191793D02*X57900Y191043D01*
Y194343D02*X59400D01*
X60150Y196293D02*Y195093D01*
Y193593D02*Y191793D01*
Y193593D02*X59400Y194343D01*
X60150Y195093D02*X59400Y194343D01*
X61950Y197043D02*X64950D01*
X61950D02*Y194043D01*
X62700Y194793D01*
X64200D01*
X64950Y194043D01*
Y191793D01*
X64200Y191043D02*X64950Y191793D01*
X62700Y191043D02*X64200D01*
X61950Y191793D02*X62700Y191043D01*
X117500Y136043D02*Y134443D01*
Y136043D02*X118887Y136843D01*
X117500Y136043D02*X116113Y136843D01*
X117500Y128543D02*Y126943D01*
Y128543D02*X118887Y129343D01*
X117500Y128543D02*X116113Y129343D01*
X147500Y108543D02*Y106943D01*
Y108543D02*X148887Y109343D01*
X147500Y108543D02*X146113Y109343D01*
X142500Y96043D02*Y94443D01*
Y96043D02*X143887Y96843D01*
X142500Y96043D02*X141113Y96843D01*
X102500Y131043D02*Y129443D01*
Y131043D02*X103887Y131843D01*
X102500Y131043D02*X101113Y131843D01*
X107500Y136043D02*Y134443D01*
Y136043D02*X108887Y136843D01*
X107500Y136043D02*X106113Y136843D01*
X187500Y93543D02*Y91943D01*
Y93543D02*X188887Y94343D01*
X187500Y93543D02*X186113Y94343D01*
X167500Y38543D02*Y36943D01*
Y38543D02*X168887Y39343D01*
X167500Y38543D02*X166113Y39343D01*
X142500Y91043D02*Y89443D01*
Y91043D02*X143887Y91843D01*
X142500Y91043D02*X141113Y91843D01*
X110000Y51043D02*Y49443D01*
Y51043D02*X111387Y51843D01*
X110000Y51043D02*X108613Y51843D01*
X155000Y111043D02*Y109443D01*
Y111043D02*X156387Y111843D01*
X155000Y111043D02*X153613Y111843D01*
X190000Y71043D02*Y69443D01*
Y71043D02*X191387Y71843D01*
X190000Y71043D02*X188613Y71843D01*
X207500Y68543D02*Y66943D01*
Y68543D02*X208887Y69343D01*
X207500Y68543D02*X206113Y69343D01*
X197500Y63543D02*Y61943D01*
Y63543D02*X198887Y64343D01*
X197500Y63543D02*X196113Y64343D01*
X211000Y78543D02*Y76943D01*
Y78543D02*X212387Y79343D01*
X211000Y78543D02*X209613Y79343D01*
X237500Y73543D02*Y71943D01*
Y73543D02*X238887Y74343D01*
X237500Y73543D02*X236113Y74343D01*
X237500Y83543D02*Y81943D01*
Y83543D02*X238887Y84343D01*
X237500Y83543D02*X236113Y84343D01*
X95000Y73543D02*Y71943D01*
Y73543D02*X96387Y74343D01*
X95000Y73543D02*X93613Y74343D01*
X92500Y36043D02*Y34443D01*
Y36043D02*X93887Y36843D01*
X92500Y36043D02*X91113Y36843D01*
X102500Y51043D02*Y49443D01*
Y51043D02*X103887Y51843D01*
X102500Y51043D02*X101113Y51843D01*
X127500Y46043D02*Y44443D01*
Y46043D02*X128887Y46843D01*
X127500Y46043D02*X126113Y46843D01*
X100000Y71043D02*Y69443D01*
Y71043D02*X101387Y71843D01*
X100000Y71043D02*X98613Y71843D01*
X157500Y93543D02*Y91943D01*
Y93543D02*X158887Y94343D01*
X157500Y93543D02*X156113Y94343D01*
X172500Y71043D02*Y69443D01*
Y71043D02*X173887Y71843D01*
X172500Y71043D02*X171113Y71843D01*
X142500Y78543D02*Y76943D01*
Y78543D02*X143887Y79343D01*
X142500Y78543D02*X141113Y79343D01*
X162500Y31043D02*Y29443D01*
Y31043D02*X163887Y31843D01*
X162500Y31043D02*X161113Y31843D01*
X135000Y111043D02*Y109443D01*
Y111043D02*X136387Y111843D01*
X135000Y111043D02*X133613Y111843D01*
X117500Y116043D02*Y114443D01*
Y116043D02*X118887Y116843D01*
X117500Y116043D02*X116113Y116843D01*
X192500Y36043D02*Y34443D01*
Y36043D02*X193887Y36843D01*
X192500Y36043D02*X191113Y36843D01*
X140000Y66043D02*Y64443D01*
Y66043D02*X141387Y66843D01*
X140000Y66043D02*X138613Y66843D01*
X192500Y26043D02*Y24443D01*
Y26043D02*X193887Y26843D01*
X192500Y26043D02*X191113Y26843D01*
X192500Y13543D02*Y11943D01*
Y13543D02*X193887Y14343D01*
X192500Y13543D02*X191113Y14343D01*
X142500Y46043D02*Y44443D01*
Y46043D02*X143887Y46843D01*
X142500Y46043D02*X141113Y46843D01*
X142500Y71043D02*Y69443D01*
Y71043D02*X143887Y71843D01*
X142500Y71043D02*X141113Y71843D01*
X161400Y46543D02*Y44943D01*
Y46543D02*X162787Y47343D01*
X161400Y46543D02*X160013Y47343D01*
X166000Y47943D02*Y46343D01*
Y47943D02*X167387Y48743D01*
X166000Y47943D02*X164613Y48743D01*
X168500Y51843D02*Y50243D01*
Y51843D02*X169887Y52643D01*
X168500Y51843D02*X167113Y52643D01*
X15000Y209793D02*Y208193D01*
Y209793D02*X16387Y210593D01*
X15000Y209793D02*X13613Y210593D01*
X135000Y212043D02*X136500Y209043D01*
X138000Y212043D01*
X136500Y209043D02*Y206043D01*
X139800Y209343D02*X142050D01*
X139800Y206043D02*X142800D01*
X139800Y212043D02*Y206043D01*
Y212043D02*X142800D01*
X147600D02*X148350Y211293D01*
X145350Y212043D02*X147600D01*
X144600Y211293D02*X145350Y212043D01*
X144600Y211293D02*Y209793D01*
X145350Y209043D01*
X147600D01*
X148350Y208293D01*
Y206793D01*
X147600Y206043D02*X148350Y206793D01*
X145350Y206043D02*X147600D01*
X144600Y206793D02*X145350Y206043D01*
X98000Y211293D02*X98750Y212043D01*
X100250D01*
X101000Y211293D01*
X100250Y206043D02*X101000Y206793D01*
X98750Y206043D02*X100250D01*
X98000Y206793D02*X98750Y206043D01*
Y209343D02*X100250D01*
X101000Y211293D02*Y210093D01*
Y208593D02*Y206793D01*
Y208593D02*X100250Y209343D01*
X101000Y210093D02*X100250Y209343D01*
X103550Y206043D02*X106550Y212043D01*
X102800D02*X106550D01*
X45000Y206793D02*X45750Y206043D01*
X45000Y211293D02*Y206793D01*
Y211293D02*X45750Y212043D01*
X47250D01*
X48000Y211293D01*
Y206793D01*
X47250Y206043D02*X48000Y206793D01*
X45750Y206043D02*X47250D01*
X45000Y207543D02*X48000Y210543D01*
X49800Y206043D02*X50550D01*
X52350Y206793D02*X53100Y206043D01*
X52350Y211293D02*Y206793D01*
Y211293D02*X53100Y212043D01*
X54600D01*
X55350Y211293D01*
Y206793D01*
X54600Y206043D02*X55350Y206793D01*
X53100Y206043D02*X54600D01*
X52350Y207543D02*X55350Y210543D01*
X57150Y211293D02*X57900Y212043D01*
X60150D01*
X60900Y211293D01*
Y209793D01*
X57150Y206043D02*X60900Y209793D01*
X57150Y206043D02*X60900D01*
X62700Y206793D02*X63450Y206043D01*
X62700Y211293D02*Y206793D01*
Y211293D02*X63450Y212043D01*
X64950D01*
X65700Y211293D01*
Y206793D01*
X64950Y206043D02*X65700Y206793D01*
X63450Y206043D02*X64950D01*
X62700Y207543D02*X65700Y210543D01*
X3000Y227043D02*X3750Y226293D01*
X750Y227043D02*X3000D01*
X0Y226293D02*X750Y227043D01*
X0Y226293D02*Y224793D01*
X750Y224043D01*
X3000D01*
X3750Y223293D01*
Y221793D01*
X3000Y221043D02*X3750Y221793D01*
X750Y221043D02*X3000D01*
X0Y221793D02*X750Y221043D01*
X5550Y224043D02*Y221793D01*
X6300Y221043D01*
X8550Y224043D02*Y219543D01*
X7800Y218793D02*X8550Y219543D01*
X6300Y218793D02*X7800D01*
X5550Y219543D02*X6300Y218793D01*
Y221043D02*X7800D01*
X8550Y221793D01*
X11100Y223293D02*Y221043D01*
Y223293D02*X11850Y224043D01*
X12600D01*
X13350Y223293D01*
Y221043D01*
Y223293D02*X14100Y224043D01*
X14850D01*
X15600Y223293D01*
Y221043D01*
X10350Y224043D02*X11100Y223293D01*
X17400Y227043D02*Y221043D01*
Y221793D02*X18150Y221043D01*
X19650D01*
X20400Y221793D01*
Y223293D02*Y221793D01*
X19650Y224043D02*X20400Y223293D01*
X18150Y224043D02*X19650D01*
X17400Y223293D02*X18150Y224043D01*
X22200Y223293D02*Y221793D01*
Y223293D02*X22950Y224043D01*
X24450D01*
X25200Y223293D01*
Y221793D01*
X24450Y221043D02*X25200Y221793D01*
X22950Y221043D02*X24450D01*
X22200Y221793D02*X22950Y221043D01*
X27000Y227043D02*Y221793D01*
X27750Y221043D01*
X0Y217793D02*X29250D01*
X41750Y227043D02*Y221043D01*
X43700Y227043D02*X44750Y225993D01*
Y222093D01*
X43700Y221043D02*X44750Y222093D01*
X41000Y221043D02*X43700D01*
X41000Y227043D02*X43700D01*
G54D110*X46550Y225543D02*Y225393D01*
G54D109*Y223293D02*Y221043D01*
X50300Y224043D02*X51050Y223293D01*
X48800Y224043D02*X50300D01*
X48050Y223293D02*X48800Y224043D01*
X48050Y223293D02*Y221793D01*
X48800Y221043D01*
X51050Y224043D02*Y221793D01*
X51800Y221043D01*
X48800D02*X50300D01*
X51050Y221793D01*
X54350Y223293D02*Y221043D01*
Y223293D02*X55100Y224043D01*
X55850D01*
X56600Y223293D01*
Y221043D01*
Y223293D02*X57350Y224043D01*
X58100D01*
X58850Y223293D01*
Y221043D01*
X53600Y224043D02*X54350Y223293D01*
X60650Y221043D02*X61400D01*
X65900Y221793D02*X66650Y221043D01*
X65900Y226293D02*X66650Y227043D01*
X65900Y226293D02*Y221793D01*
X68450Y227043D02*X69950D01*
X69200D02*Y221043D01*
X68450D02*X69950D01*
X72500Y223293D02*Y221043D01*
Y223293D02*X73250Y224043D01*
X74000D01*
X74750Y223293D01*
Y221043D01*
X71750Y224043D02*X72500Y223293D01*
X77300Y224043D02*X79550D01*
X76550Y223293D02*X77300Y224043D01*
X76550Y223293D02*Y221793D01*
X77300Y221043D01*
X79550D01*
X81350Y227043D02*Y221043D01*
Y223293D02*X82100Y224043D01*
X83600D01*
X84350Y223293D01*
Y221043D01*
X86150Y227043D02*X86900Y226293D01*
Y221793D01*
X86150Y221043D02*X86900Y221793D01*
X41000Y217793D02*X88700D01*
X96050Y221043D02*X98000D01*
X95000Y222093D02*X96050Y221043D01*
X95000Y225993D02*Y222093D01*
Y225993D02*X96050Y227043D01*
X98000D01*
X99800Y223293D02*Y221793D01*
Y223293D02*X100550Y224043D01*
X102050D01*
X102800Y223293D01*
Y221793D01*
X102050Y221043D02*X102800Y221793D01*
X100550Y221043D02*X102050D01*
X99800Y221793D02*X100550Y221043D01*
X104600Y224043D02*Y221793D01*
X105350Y221043D01*
X106850D01*
X107600Y221793D01*
Y224043D02*Y221793D01*
X110150Y223293D02*Y221043D01*
Y223293D02*X110900Y224043D01*
X111650D01*
X112400Y223293D01*
Y221043D01*
X109400Y224043D02*X110150Y223293D01*
X114950Y227043D02*Y221793D01*
X115700Y221043D01*
X114200Y224793D02*X115700D01*
X95000Y217793D02*X117200D01*
X130750Y227043D02*Y221043D01*
X130000Y227043D02*X133000D01*
X133750Y226293D01*
Y224793D01*
X133000Y224043D02*X133750Y224793D01*
X130750Y224043D02*X133000D01*
X135550Y227043D02*Y221793D01*
X136300Y221043D01*
X140050Y224043D02*X140800Y223293D01*
X138550Y224043D02*X140050D01*
X137800Y223293D02*X138550Y224043D01*
X137800Y223293D02*Y221793D01*
X138550Y221043D01*
X140800Y224043D02*Y221793D01*
X141550Y221043D01*
X138550D02*X140050D01*
X140800Y221793D01*
X144100Y227043D02*Y221793D01*
X144850Y221043D01*
X143350Y224793D02*X144850D01*
X147100Y221043D02*X149350D01*
X146350Y221793D02*X147100Y221043D01*
X146350Y223293D02*Y221793D01*
Y223293D02*X147100Y224043D01*
X148600D01*
X149350Y223293D01*
X146350Y222543D02*X149350D01*
Y223293D02*Y222543D01*
X154150Y227043D02*Y221043D01*
X153400D02*X154150Y221793D01*
X151900Y221043D02*X153400D01*
X151150Y221793D02*X151900Y221043D01*
X151150Y223293D02*Y221793D01*
Y223293D02*X151900Y224043D01*
X153400D01*
X154150Y223293D01*
X157450Y224043D02*Y223293D01*
Y221793D02*Y221043D01*
X155950Y226293D02*Y225543D01*
Y226293D02*X156700Y227043D01*
X158200D01*
X158950Y226293D01*
Y225543D01*
X157450Y224043D02*X158950Y225543D01*
X130000Y217793D02*X160750D01*
X0Y242043D02*X3000D01*
X1500D02*Y236043D01*
X4800Y242043D02*Y236043D01*
Y238293D02*X5550Y239043D01*
X7050D01*
X7800Y238293D01*
Y236043D01*
X10350D02*X12600D01*
X9600Y236793D02*X10350Y236043D01*
X9600Y238293D02*Y236793D01*
Y238293D02*X10350Y239043D01*
X11850D01*
X12600Y238293D01*
X9600Y237543D02*X12600D01*
Y238293D02*Y237543D01*
X15150Y238293D02*Y236043D01*
Y238293D02*X15900Y239043D01*
X17400D01*
X14400D02*X15150Y238293D01*
X19950Y236043D02*X22200D01*
X19200Y236793D02*X19950Y236043D01*
X19200Y238293D02*Y236793D01*
Y238293D02*X19950Y239043D01*
X21450D01*
X22200Y238293D01*
X19200Y237543D02*X22200D01*
Y238293D02*Y237543D01*
X28950Y239043D02*X29700Y238293D01*
X27450Y239043D02*X28950D01*
X26700Y238293D02*X27450Y239043D01*
X26700Y238293D02*Y236793D01*
X27450Y236043D01*
X29700Y239043D02*Y236793D01*
X30450Y236043D01*
X27450D02*X28950D01*
X29700Y236793D01*
X33000Y238293D02*Y236043D01*
Y238293D02*X33750Y239043D01*
X35250D01*
X32250D02*X33000Y238293D01*
X37800Y236043D02*X40050D01*
X37050Y236793D02*X37800Y236043D01*
X37050Y238293D02*Y236793D01*
Y238293D02*X37800Y239043D01*
X39300D01*
X40050Y238293D01*
X37050Y237543D02*X40050D01*
Y238293D02*Y237543D01*
X44550Y241293D02*X45300Y242043D01*
X46800D01*
X47550Y241293D01*
X46800Y236043D02*X47550Y236793D01*
X45300Y236043D02*X46800D01*
X44550Y236793D02*X45300Y236043D01*
Y239343D02*X46800D01*
X47550Y241293D02*Y240093D01*
Y238593D02*Y236793D01*
Y238593D02*X46800Y239343D01*
X47550Y240093D02*X46800Y239343D01*
X55050Y242043D02*Y236043D01*
X54300D02*X55050Y236793D01*
X52800Y236043D02*X54300D01*
X52050Y236793D02*X52800Y236043D01*
X52050Y238293D02*Y236793D01*
Y238293D02*X52800Y239043D01*
X54300D01*
X55050Y238293D01*
G54D110*X56850Y240543D02*Y240393D01*
G54D109*Y238293D02*Y236043D01*
X59100Y241293D02*Y236043D01*
Y241293D02*X59850Y242043D01*
X60600D01*
X58350Y239043D02*X59850D01*
X62850Y241293D02*Y236043D01*
Y241293D02*X63600Y242043D01*
X64350D01*
X62100Y239043D02*X63600D01*
X66600Y236043D02*X68850D01*
X65850Y236793D02*X66600Y236043D01*
X65850Y238293D02*Y236793D01*
Y238293D02*X66600Y239043D01*
X68100D01*
X68850Y238293D01*
X65850Y237543D02*X68850D01*
Y238293D02*Y237543D01*
X71400Y238293D02*Y236043D01*
Y238293D02*X72150Y239043D01*
X73650D01*
X70650D02*X71400Y238293D01*
X76200Y236043D02*X78450D01*
X75450Y236793D02*X76200Y236043D01*
X75450Y238293D02*Y236793D01*
Y238293D02*X76200Y239043D01*
X77700D01*
X78450Y238293D01*
X75450Y237543D02*X78450D01*
Y238293D02*Y237543D01*
X81000Y238293D02*Y236043D01*
Y238293D02*X81750Y239043D01*
X82500D01*
X83250Y238293D01*
Y236043D01*
X80250Y239043D02*X81000Y238293D01*
X85800Y242043D02*Y236793D01*
X86550Y236043D01*
X85050Y239793D02*X86550D01*
X93750Y242043D02*Y236043D01*
X93000D02*X93750Y236793D01*
X91500Y236043D02*X93000D01*
X90750Y236793D02*X91500Y236043D01*
X90750Y238293D02*Y236793D01*
Y238293D02*X91500Y239043D01*
X93000D01*
X93750Y238293D01*
X96300D02*Y236043D01*
Y238293D02*X97050Y239043D01*
X98550D01*
X95550D02*X96300Y238293D01*
G54D110*X100350Y240543D02*Y240393D01*
G54D109*Y238293D02*Y236043D01*
X101850Y242043D02*Y236793D01*
X102600Y236043D01*
X104100Y242043D02*Y236793D01*
X104850Y236043D01*
X109800D02*X112050D01*
X112800Y236793D01*
X112050Y237543D02*X112800Y236793D01*
X109800Y237543D02*X112050D01*
X109050Y238293D02*X109800Y237543D01*
X109050Y238293D02*X109800Y239043D01*
X112050D01*
X112800Y238293D01*
X109050Y236793D02*X109800Y236043D01*
G54D110*X114600Y240543D02*Y240393D01*
G54D109*Y238293D02*Y236043D01*
X116100Y239043D02*X119100D01*
X116100Y236043D02*X119100Y239043D01*
X116100Y236043D02*X119100D01*
X121650D02*X123900D01*
X120900Y236793D02*X121650Y236043D01*
X120900Y238293D02*Y236793D01*
Y238293D02*X121650Y239043D01*
X123150D01*
X123900Y238293D01*
X120900Y237543D02*X123900D01*
Y238293D02*Y237543D01*
X126450Y236043D02*X128700D01*
X129450Y236793D01*
X128700Y237543D02*X129450Y236793D01*
X126450Y237543D02*X128700D01*
X125700Y238293D02*X126450Y237543D01*
X125700Y238293D02*X126450Y239043D01*
X128700D01*
X129450Y238293D01*
X125700Y236793D02*X126450Y236043D01*
X133950Y239043D02*Y236793D01*
X134700Y236043D01*
X136200D01*
X136950Y236793D01*
Y239043D02*Y236793D01*
X139500Y236043D02*X141750D01*
X142500Y236793D01*
X141750Y237543D02*X142500Y236793D01*
X139500Y237543D02*X141750D01*
X138750Y238293D02*X139500Y237543D01*
X138750Y238293D02*X139500Y239043D01*
X141750D01*
X142500Y238293D01*
X138750Y236793D02*X139500Y236043D01*
X145050D02*X147300D01*
X144300Y236793D02*X145050Y236043D01*
X144300Y238293D02*Y236793D01*
Y238293D02*X145050Y239043D01*
X146550D01*
X147300Y238293D01*
X144300Y237543D02*X147300D01*
Y238293D02*Y237543D01*
X152100Y242043D02*Y236043D01*
X151350D02*X152100Y236793D01*
X149850Y236043D02*X151350D01*
X149100Y236793D02*X149850Y236043D01*
X149100Y238293D02*Y236793D01*
Y238293D02*X149850Y239043D01*
X151350D01*
X152100Y238293D01*
G54D110*X156600Y240543D02*Y240393D01*
G54D109*Y238293D02*Y236043D01*
X158850Y238293D02*Y236043D01*
Y238293D02*X159600Y239043D01*
X160350D01*
X161100Y238293D01*
Y236043D01*
X158100Y239043D02*X158850Y238293D01*
X166350Y242043D02*Y236793D01*
X167100Y236043D01*
X165600Y239793D02*X167100D01*
X168600Y242043D02*Y236043D01*
Y238293D02*X169350Y239043D01*
X170850D01*
X171600Y238293D01*
Y236043D01*
G54D110*X173400Y240543D02*Y240393D01*
G54D109*Y238293D02*Y236043D01*
X175650D02*X177900D01*
X178650Y236793D01*
X177900Y237543D02*X178650Y236793D01*
X175650Y237543D02*X177900D01*
X174900Y238293D02*X175650Y237543D01*
X174900Y238293D02*X175650Y239043D01*
X177900D01*
X178650Y238293D01*
X174900Y236793D02*X175650Y236043D01*
X183150Y242043D02*Y236793D01*
X183900Y236043D01*
X187650Y239043D02*X188400Y238293D01*
X186150Y239043D02*X187650D01*
X185400Y238293D02*X186150Y239043D01*
X185400Y238293D02*Y236793D01*
X186150Y236043D01*
X188400Y239043D02*Y236793D01*
X189150Y236043D01*
X186150D02*X187650D01*
X188400Y236793D01*
X190950Y239043D02*Y236793D01*
X191700Y236043D01*
X193950Y239043D02*Y234543D01*
X193200Y233793D02*X193950Y234543D01*
X191700Y233793D02*X193200D01*
X190950Y234543D02*X191700Y233793D01*
Y236043D02*X193200D01*
X193950Y236793D01*
X195750Y238293D02*Y236793D01*
Y238293D02*X196500Y239043D01*
X198000D01*
X198750Y238293D01*
Y236793D01*
X198000Y236043D02*X198750Y236793D01*
X196500Y236043D02*X198000D01*
X195750Y236793D02*X196500Y236043D01*
X200550Y239043D02*Y236793D01*
X201300Y236043D01*
X202800D01*
X203550Y236793D01*
Y239043D02*Y236793D01*
X206100Y242043D02*Y236793D01*
X206850Y236043D01*
X205350Y239793D02*X206850D01*
X208350Y234543D02*X209850Y236043D01*
X215100D02*X218100Y242043D01*
X214350D02*X218100D01*
X220650Y236043D02*X222900Y239043D01*
Y241293D02*Y239043D01*
X222150Y242043D02*X222900Y241293D01*
X220650Y242043D02*X222150D01*
X219900Y241293D02*X220650Y242043D01*
X219900Y241293D02*Y239793D01*
X220650Y239043D01*
X222900D01*
X227400Y242043D02*Y236043D01*
Y238293D02*X228150Y239043D01*
X229650D01*
X230400Y238293D01*
Y236043D01*
X232200Y238293D02*Y236793D01*
Y238293D02*X232950Y239043D01*
X234450D01*
X235200Y238293D01*
Y236793D01*
X234450Y236043D02*X235200Y236793D01*
X232950Y236043D02*X234450D01*
X232200Y236793D02*X232950Y236043D01*
X237000Y242043D02*Y236793D01*
X237750Y236043D01*
X240000D02*X242250D01*
X239250Y236793D02*X240000Y236043D01*
X239250Y238293D02*Y236793D01*
Y238293D02*X240000Y239043D01*
X241500D01*
X242250Y238293D01*
X239250Y237543D02*X242250D01*
Y238293D02*Y237543D01*
X244800Y236043D02*X247050D01*
X247800Y236793D01*
X247050Y237543D02*X247800Y236793D01*
X244800Y237543D02*X247050D01*
X244050Y238293D02*X244800Y237543D01*
X244050Y238293D02*X244800Y239043D01*
X247050D01*
X247800Y238293D01*
X244050Y236793D02*X244800Y236043D01*
X253050Y242043D02*Y236793D01*
X253800Y236043D01*
X252300Y239793D02*X253800D01*
X255300Y238293D02*Y236793D01*
Y238293D02*X256050Y239043D01*
X257550D01*
X258300Y238293D01*
Y236793D01*
X257550Y236043D02*X258300Y236793D01*
X256050Y236043D02*X257550D01*
X255300Y236793D02*X256050Y236043D01*
X260850Y242043D02*Y236793D01*
X261600Y236043D01*
X260100Y239793D02*X261600D01*
X265350Y239043D02*X266100Y238293D01*
X263850Y239043D02*X265350D01*
X263100Y238293D02*X263850Y239043D01*
X263100Y238293D02*Y236793D01*
X263850Y236043D01*
X266100Y239043D02*Y236793D01*
X266850Y236043D01*
X263850D02*X265350D01*
X266100Y236793D01*
X268650Y242043D02*Y236793D01*
X269400Y236043D01*
G54D111*X0Y153543D02*X279528D01*
X0D02*Y0D01*
X279528Y153543D02*Y0D01*
X0D02*X279528D01*
G54D109*X200000Y167043D02*Y161043D01*
Y167043D02*X202250Y164043D01*
X204500Y167043D01*
Y161043D01*
X208550Y164043D02*X209300Y163293D01*
X207050Y164043D02*X208550D01*
X206300Y163293D02*X207050Y164043D01*
X206300Y163293D02*Y161793D01*
X207050Y161043D01*
X209300Y164043D02*Y161793D01*
X210050Y161043D01*
X207050D02*X208550D01*
X209300Y161793D01*
X211850Y164043D02*X214850Y161043D01*
X211850D02*X214850Y164043D01*
G54D110*X216650Y165543D02*Y165393D01*
G54D109*Y163293D02*Y161043D01*
X218900Y163293D02*Y161043D01*
Y163293D02*X219650Y164043D01*
X220400D01*
X221150Y163293D01*
Y161043D01*
Y163293D02*X221900Y164043D01*
X222650D01*
X223400Y163293D01*
Y161043D01*
X218150Y164043D02*X218900Y163293D01*
X225200Y164043D02*Y161793D01*
X225950Y161043D01*
X227450D01*
X228200Y161793D01*
Y164043D02*Y161793D01*
X230750Y163293D02*Y161043D01*
Y163293D02*X231500Y164043D01*
X232250D01*
X233000Y163293D01*
Y161043D01*
Y163293D02*X233750Y164043D01*
X234500D01*
X235250Y163293D01*
Y161043D01*
X230000Y164043D02*X230750Y163293D01*
X240500Y167043D02*Y161043D01*
X242450Y167043D02*X243500Y165993D01*
Y162093D01*
X242450Y161043D02*X243500Y162093D01*
X239750Y161043D02*X242450D01*
X239750Y167043D02*X242450D01*
G54D110*X245300Y165543D02*Y165393D01*
G54D109*Y163293D02*Y161043D01*
X247550Y163293D02*Y161043D01*
Y163293D02*X248300Y164043D01*
X249050D01*
X249800Y163293D01*
Y161043D01*
Y163293D02*X250550Y164043D01*
X251300D01*
X252050Y163293D01*
Y161043D01*
X246800Y164043D02*X247550Y163293D01*
X254600Y161043D02*X256850D01*
X253850Y161793D02*X254600Y161043D01*
X253850Y163293D02*Y161793D01*
Y163293D02*X254600Y164043D01*
X256100D01*
X256850Y163293D01*
X253850Y162543D02*X256850D01*
Y163293D02*Y162543D01*
X259400Y163293D02*Y161043D01*
Y163293D02*X260150Y164043D01*
X260900D01*
X261650Y163293D01*
Y161043D01*
X258650Y164043D02*X259400Y163293D01*
X264200Y161043D02*X266450D01*
X267200Y161793D01*
X266450Y162543D02*X267200Y161793D01*
X264200Y162543D02*X266450D01*
X263450Y163293D02*X264200Y162543D01*
X263450Y163293D02*X264200Y164043D01*
X266450D01*
X267200Y163293D01*
X263450Y161793D02*X264200Y161043D01*
G54D110*X269000Y165543D02*Y165393D01*
G54D109*Y163293D02*Y161043D01*
X270500Y163293D02*Y161793D01*
Y163293D02*X271250Y164043D01*
X272750D01*
X273500Y163293D01*
Y161793D01*
X272750Y161043D02*X273500Y161793D01*
X271250Y161043D02*X272750D01*
X270500Y161793D02*X271250Y161043D01*
X276050Y163293D02*Y161043D01*
Y163293D02*X276800Y164043D01*
X277550D01*
X278300Y163293D01*
Y161043D01*
X275300Y164043D02*X276050Y163293D01*
X280850Y161043D02*X283100D01*
X283850Y161793D01*
X283100Y162543D02*X283850Y161793D01*
X280850Y162543D02*X283100D01*
X280100Y163293D02*X280850Y162543D01*
X280100Y163293D02*X280850Y164043D01*
X283100D01*
X283850Y163293D01*
X280100Y161793D02*X280850Y161043D01*
X285650Y164793D02*X286400D01*
X285650Y163293D02*X286400D01*
X290900Y166293D02*X291650Y167043D01*
X293900D01*
X294650Y166293D01*
Y164793D01*
X290900Y161043D02*X294650Y164793D01*
X290900Y161043D02*X294650D01*
X297200D02*X300200Y167043D01*
X296450D02*X300200D01*
X302750Y161043D02*X305000Y164043D01*
Y166293D02*Y164043D01*
X304250Y167043D02*X305000Y166293D01*
X302750Y167043D02*X304250D01*
X302000Y166293D02*X302750Y167043D01*
X302000Y166293D02*Y164793D01*
X302750Y164043D01*
X305000D01*
X306800Y167043D02*X309800D01*
X306800D02*Y164043D01*
X307550Y164793D01*
X309050D01*
X309800Y164043D01*
Y161793D01*
X309050Y161043D02*X309800Y161793D01*
X307550Y161043D02*X309050D01*
X306800Y161793D02*X307550Y161043D01*
X311600D02*X312350D01*
X314150Y166293D02*X314900Y167043D01*
X317150D01*
X317900Y166293D01*
Y164793D01*
X314150Y161043D02*X317900Y164793D01*
X314150Y161043D02*X317900D01*
X320450D02*X323450Y167043D01*
X319700D02*X323450D01*
X325250D02*X328250D01*
X325250D02*Y164043D01*
X326000Y164793D01*
X327500D01*
X328250Y164043D01*
Y161793D01*
X327500Y161043D02*X328250Y161793D01*
X326000Y161043D02*X327500D01*
X325250Y161793D02*X326000Y161043D01*
X330050Y167043D02*X333050D01*
X330050D02*Y164043D01*
X330800Y164793D01*
X332300D01*
X333050Y164043D01*
Y161793D01*
X332300Y161043D02*X333050Y161793D01*
X330800Y161043D02*X332300D01*
X330050Y161793D02*X330800Y161043D01*
X335600D02*X337850Y164043D01*
Y166293D02*Y164043D01*
X337100Y167043D02*X337850Y166293D01*
X335600Y167043D02*X337100D01*
X334850Y166293D02*X335600Y167043D01*
X334850Y166293D02*Y164793D01*
X335600Y164043D01*
X337850D01*
X339650Y165843D02*X340850Y167043D01*
Y161043D01*
X339650D02*X341900D01*
X347150Y163293D02*Y161043D01*
Y163293D02*X347900Y164043D01*
X348650D01*
X349400Y163293D01*
Y161043D01*
Y163293D02*X350150Y164043D01*
X350900D01*
X351650Y163293D01*
Y161043D01*
X346400Y164043D02*X347150Y163293D01*
G54D110*X353450Y165543D02*Y165393D01*
G54D109*Y163293D02*Y161043D01*
X354950Y167043D02*Y161793D01*
X355700Y161043D01*
X357950D02*X360200D01*
X360950Y161793D01*
X360200Y162543D02*X360950Y161793D01*
X357950Y162543D02*X360200D01*
X357200Y163293D02*X357950Y162543D01*
X357200Y163293D02*X357950Y164043D01*
X360200D01*
X360950Y163293D01*
X357200Y161793D02*X357950Y161043D01*
X365450Y164043D02*Y161793D01*
X366200Y161043D01*
X366950D01*
X367700Y161793D01*
Y164043D02*Y161793D01*
X368450Y161043D01*
X369200D01*
X369950Y161793D01*
Y164043D02*Y161793D01*
G54D110*X371750Y165543D02*Y165393D01*
G54D109*Y163293D02*Y161043D01*
X376250Y167043D02*Y161043D01*
X375500D02*X376250Y161793D01*
X374000Y161043D02*X375500D01*
X373250Y161793D02*X374000Y161043D01*
X373250Y163293D02*Y161793D01*
Y163293D02*X374000Y164043D01*
X375500D01*
X376250Y163293D01*
X378800Y161043D02*X381050D01*
X378050Y161793D02*X378800Y161043D01*
X378050Y163293D02*Y161793D01*
Y163293D02*X378800Y164043D01*
X380300D01*
X381050Y163293D01*
X378050Y162543D02*X381050D01*
Y163293D02*Y162543D01*
X382850Y159543D02*X384350Y161043D01*
X388850Y165843D02*X390050Y167043D01*
Y161043D01*
X388850D02*X391100D01*
X392900Y167043D02*X395900D01*
X392900D02*Y164043D01*
X393650Y164793D01*
X395150D01*
X395900Y164043D01*
Y161793D01*
X395150Y161043D02*X395900Y161793D01*
X393650Y161043D02*X395150D01*
X392900Y161793D02*X393650Y161043D01*
X397700Y166293D02*X398450Y167043D01*
X399950D01*
X400700Y166293D01*
X399950Y161043D02*X400700Y161793D01*
X398450Y161043D02*X399950D01*
X397700Y161793D02*X398450Y161043D01*
Y164343D02*X399950D01*
X400700Y166293D02*Y165093D01*
Y163593D02*Y161793D01*
Y163593D02*X399950Y164343D01*
X400700Y165093D02*X399950Y164343D01*
X402500Y167043D02*X405500D01*
X402500D02*Y164043D01*
X403250Y164793D01*
X404750D01*
X405500Y164043D01*
Y161793D01*
X404750Y161043D02*X405500Y161793D01*
X403250Y161043D02*X404750D01*
X402500Y161793D02*X403250Y161043D01*
X407300D02*X408050D01*
X409850Y163293D02*X412850Y167043D01*
X409850Y163293D02*X413600D01*
X412850Y167043D02*Y161043D01*
X415400Y166293D02*X416150Y167043D01*
X417650D01*
X418400Y166293D01*
X417650Y161043D02*X418400Y161793D01*
X416150Y161043D02*X417650D01*
X415400Y161793D02*X416150Y161043D01*
Y164343D02*X417650D01*
X418400Y166293D02*Y165093D01*
Y163593D02*Y161793D01*
Y163593D02*X417650Y164343D01*
X418400Y165093D02*X417650Y164343D01*
X420200Y166293D02*X420950Y167043D01*
X422450D01*
X423200Y166293D01*
X422450Y161043D02*X423200Y161793D01*
X420950Y161043D02*X422450D01*
X420200Y161793D02*X420950Y161043D01*
Y164343D02*X422450D01*
X423200Y166293D02*Y165093D01*
Y163593D02*Y161793D01*
Y163593D02*X422450Y164343D01*
X423200Y165093D02*X422450Y164343D01*
X425000Y161793D02*X425750Y161043D01*
X425000Y166293D02*Y161793D01*
Y166293D02*X425750Y167043D01*
X427250D01*
X428000Y166293D01*
Y161793D01*
X427250Y161043D02*X428000Y161793D01*
X425750Y161043D02*X427250D01*
X425000Y162543D02*X428000Y165543D01*
X430550Y161043D02*X433550Y167043D01*
X429800D02*X433550D01*
X435350Y165843D02*X436550Y167043D01*
Y161043D01*
X435350D02*X437600D01*
X442850Y163293D02*Y161043D01*
Y163293D02*X443600Y164043D01*
X444350D01*
X445100Y163293D01*
Y161043D01*
Y163293D02*X445850Y164043D01*
X446600D01*
X447350Y163293D01*
Y161043D01*
X442100Y164043D02*X442850Y163293D01*
G54D110*X449150Y165543D02*Y165393D01*
G54D109*Y163293D02*Y161043D01*
X450650Y167043D02*Y161793D01*
X451400Y161043D01*
X453650D02*X455900D01*
X456650Y161793D01*
X455900Y162543D02*X456650Y161793D01*
X453650Y162543D02*X455900D01*
X452900Y163293D02*X453650Y162543D01*
X452900Y163293D02*X453650Y164043D01*
X455900D01*
X456650Y163293D01*
X452900Y161793D02*X453650Y161043D01*
X461150Y167043D02*Y161043D01*
Y163293D02*X461900Y164043D01*
X463400D01*
X464150Y163293D01*
Y161043D01*
G54D110*X465950Y165543D02*Y165393D01*
G54D109*Y163293D02*Y161043D01*
X469700Y164043D02*X470450Y163293D01*
X468200Y164043D02*X469700D01*
X467450Y163293D02*X468200Y164043D01*
X467450Y163293D02*Y161793D01*
X468200Y161043D01*
X469700D01*
X470450Y161793D01*
X467450Y159543D02*X468200Y158793D01*
X469700D01*
X470450Y159543D01*
Y164043D02*Y159543D01*
X472250Y167043D02*Y161043D01*
Y163293D02*X473000Y164043D01*
X474500D01*
X475250Y163293D01*
Y161043D01*
X0Y-9500D02*X3000D01*
X3750Y-8750D01*
Y-6950D02*Y-8750D01*
X3000Y-6200D02*X3750Y-6950D01*
X750Y-6200D02*X3000D01*
X750Y-3500D02*Y-9500D01*
X0Y-3500D02*X3000D01*
X3750Y-4250D01*
Y-5450D01*
X3000Y-6200D02*X3750Y-5450D01*
X5550Y-7250D02*Y-8750D01*
Y-7250D02*X6300Y-6500D01*
X7800D01*
X8550Y-7250D01*
Y-8750D01*
X7800Y-9500D02*X8550Y-8750D01*
X6300Y-9500D02*X7800D01*
X5550Y-8750D02*X6300Y-9500D01*
X12600Y-6500D02*X13350Y-7250D01*
X11100Y-6500D02*X12600D01*
X10350Y-7250D02*X11100Y-6500D01*
X10350Y-7250D02*Y-8750D01*
X11100Y-9500D01*
X13350Y-6500D02*Y-8750D01*
X14100Y-9500D01*
X11100D02*X12600D01*
X13350Y-8750D01*
X16650Y-7250D02*Y-9500D01*
Y-7250D02*X17400Y-6500D01*
X18900D01*
X15900D02*X16650Y-7250D01*
X23700Y-3500D02*Y-9500D01*
X22950D02*X23700Y-8750D01*
X21450Y-9500D02*X22950D01*
X20700Y-8750D02*X21450Y-9500D01*
X20700Y-7250D02*Y-8750D01*
Y-7250D02*X21450Y-6500D01*
X22950D01*
X23700Y-7250D01*
X28200D02*Y-8750D01*
Y-7250D02*X28950Y-6500D01*
X30450D01*
X31200Y-7250D01*
Y-8750D01*
X30450Y-9500D02*X31200Y-8750D01*
X28950Y-9500D02*X30450D01*
X28200Y-8750D02*X28950Y-9500D01*
X33000Y-6500D02*Y-8750D01*
X33750Y-9500D01*
X35250D01*
X36000Y-8750D01*
Y-6500D02*Y-8750D01*
X38550Y-3500D02*Y-8750D01*
X39300Y-9500D01*
X37800Y-5750D02*X39300D01*
X40800Y-3500D02*Y-8750D01*
X41550Y-9500D01*
G54D110*X43050Y-5000D02*Y-5150D01*
G54D109*Y-7250D02*Y-9500D01*
X45300Y-7250D02*Y-9500D01*
Y-7250D02*X46050Y-6500D01*
X46800D01*
X47550Y-7250D01*
Y-9500D01*
X44550Y-6500D02*X45300Y-7250D01*
X50100Y-9500D02*X52350D01*
X49350Y-8750D02*X50100Y-9500D01*
X49350Y-7250D02*Y-8750D01*
Y-7250D02*X50100Y-6500D01*
X51600D01*
X52350Y-7250D01*
X49350Y-8000D02*X52350D01*
Y-7250D02*Y-8000D01*
G54D110*X56850Y-5000D02*Y-5150D01*
G54D109*Y-7250D02*Y-9500D01*
X59100D02*X61350D01*
X62100Y-8750D01*
X61350Y-8000D02*X62100Y-8750D01*
X59100Y-8000D02*X61350D01*
X58350Y-7250D02*X59100Y-8000D01*
X58350Y-7250D02*X59100Y-6500D01*
X61350D01*
X62100Y-7250D01*
X58350Y-8750D02*X59100Y-9500D01*
X67350Y-3500D02*Y-8750D01*
X68100Y-9500D01*
X66600Y-5750D02*X68100D01*
X69600Y-3500D02*Y-9500D01*
Y-7250D02*X70350Y-6500D01*
X71850D01*
X72600Y-7250D01*
Y-9500D01*
X75150D02*X77400D01*
X74400Y-8750D02*X75150Y-9500D01*
X74400Y-7250D02*Y-8750D01*
Y-7250D02*X75150Y-6500D01*
X76650D01*
X77400Y-7250D01*
X74400Y-8000D02*X77400D01*
Y-7250D02*Y-8000D01*
X82650Y-6500D02*X84900D01*
X81900Y-7250D02*X82650Y-6500D01*
X81900Y-7250D02*Y-8750D01*
X82650Y-9500D01*
X84900D01*
X87450D02*X89700D01*
X86700Y-8750D02*X87450Y-9500D01*
X86700Y-7250D02*Y-8750D01*
Y-7250D02*X87450Y-6500D01*
X88950D01*
X89700Y-7250D01*
X86700Y-8000D02*X89700D01*
Y-7250D02*Y-8000D01*
X92250Y-7250D02*Y-9500D01*
Y-7250D02*X93000Y-6500D01*
X93750D01*
X94500Y-7250D01*
Y-9500D01*
X91500Y-6500D02*X92250Y-7250D01*
X97050Y-3500D02*Y-8750D01*
X97800Y-9500D01*
X96300Y-5750D02*X97800D01*
X100050Y-9500D02*X102300D01*
X99300Y-8750D02*X100050Y-9500D01*
X99300Y-7250D02*Y-8750D01*
Y-7250D02*X100050Y-6500D01*
X101550D01*
X102300Y-7250D01*
X99300Y-8000D02*X102300D01*
Y-7250D02*Y-8000D01*
X104850Y-7250D02*Y-9500D01*
Y-7250D02*X105600Y-6500D01*
X107100D01*
X104100D02*X104850Y-7250D01*
X108900Y-3500D02*Y-8750D01*
X109650Y-9500D01*
G54D110*X111150Y-5000D02*Y-5150D01*
G54D109*Y-7250D02*Y-9500D01*
X113400Y-7250D02*Y-9500D01*
Y-7250D02*X114150Y-6500D01*
X114900D01*
X115650Y-7250D01*
Y-9500D01*
X112650Y-6500D02*X113400Y-7250D01*
X118200Y-9500D02*X120450D01*
X117450Y-8750D02*X118200Y-9500D01*
X117450Y-7250D02*Y-8750D01*
Y-7250D02*X118200Y-6500D01*
X119700D01*
X120450Y-7250D01*
X117450Y-8000D02*X120450D01*
Y-7250D02*Y-8000D01*
X124950Y-7250D02*Y-8750D01*
Y-7250D02*X125700Y-6500D01*
X127200D01*
X127950Y-7250D01*
Y-8750D01*
X127200Y-9500D02*X127950Y-8750D01*
X125700Y-9500D02*X127200D01*
X124950Y-8750D02*X125700Y-9500D01*
X130500Y-4250D02*Y-9500D01*
Y-4250D02*X131250Y-3500D01*
X132000D01*
X129750Y-6500D02*X131250D01*
X136950Y-3500D02*Y-8750D01*
X137700Y-9500D01*
X136200Y-5750D02*X137700D01*
X139200Y-3500D02*Y-9500D01*
Y-7250D02*X139950Y-6500D01*
X141450D01*
X142200Y-7250D01*
Y-9500D01*
G54D110*X144000Y-5000D02*Y-5150D01*
G54D109*Y-7250D02*Y-9500D01*
X146250D02*X148500D01*
X149250Y-8750D01*
X148500Y-8000D02*X149250Y-8750D01*
X146250Y-8000D02*X148500D01*
X145500Y-7250D02*X146250Y-8000D01*
X145500Y-7250D02*X146250Y-6500D01*
X148500D01*
X149250Y-7250D01*
X145500Y-8750D02*X146250Y-9500D01*
X153750Y-8750D02*X154500Y-9500D01*
X153750Y-7550D02*Y-8750D01*
Y-7550D02*X154800Y-6500D01*
X155700D01*
X156750Y-7550D01*
Y-8750D01*
X156000Y-9500D02*X156750Y-8750D01*
X154500Y-9500D02*X156000D01*
X153750Y-5450D02*X154800Y-6500D01*
X153750Y-4250D02*Y-5450D01*
Y-4250D02*X154500Y-3500D01*
X156000D01*
X156750Y-4250D01*
Y-5450D01*
X155700Y-6500D02*X156750Y-5450D01*
X158550Y-9500D02*X159300D01*
X161100Y-8750D02*X161850Y-9500D01*
X161100Y-4250D02*Y-8750D01*
Y-4250D02*X161850Y-3500D01*
X163350D01*
X164100Y-4250D01*
Y-8750D01*
X163350Y-9500D02*X164100Y-8750D01*
X161850Y-9500D02*X163350D01*
X161100Y-8000D02*X164100Y-5000D01*
X165900Y-8750D02*X166650Y-9500D01*
X165900Y-4250D02*Y-8750D01*
Y-4250D02*X166650Y-3500D01*
X168150D01*
X168900Y-4250D01*
Y-8750D01*
X168150Y-9500D02*X168900Y-8750D01*
X166650Y-9500D02*X168150D01*
X165900Y-8000D02*X168900Y-5000D01*
X170700Y-8750D02*X171450Y-9500D01*
X170700Y-4250D02*Y-8750D01*
Y-4250D02*X171450Y-3500D01*
X172950D01*
X173700Y-4250D01*
Y-8750D01*
X172950Y-9500D02*X173700Y-8750D01*
X171450Y-9500D02*X172950D01*
X170700Y-8000D02*X173700Y-5000D01*
X175500Y-8750D02*X176250Y-9500D01*
X175500Y-4250D02*Y-8750D01*
Y-4250D02*X176250Y-3500D01*
X177750D01*
X178500Y-4250D01*
Y-8750D01*
X177750Y-9500D02*X178500Y-8750D01*
X176250Y-9500D02*X177750D01*
X175500Y-8000D02*X178500Y-5000D01*
X180300Y-8750D02*X181050Y-9500D01*
X180300Y-4250D02*Y-8750D01*
Y-4250D02*X181050Y-3500D01*
X182550D01*
X183300Y-4250D01*
Y-8750D01*
X182550Y-9500D02*X183300Y-8750D01*
X181050Y-9500D02*X182550D01*
X180300Y-8000D02*X183300Y-5000D01*
X185100Y-8750D02*X185850Y-9500D01*
X185100Y-4250D02*Y-8750D01*
Y-4250D02*X185850Y-3500D01*
X187350D01*
X188100Y-4250D01*
Y-8750D01*
X187350Y-9500D02*X188100Y-8750D01*
X185850Y-9500D02*X187350D01*
X185100Y-8000D02*X188100Y-5000D01*
X193350Y-7250D02*Y-9500D01*
Y-7250D02*X194100Y-6500D01*
X194850D01*
X195600Y-7250D01*
Y-9500D01*
Y-7250D02*X196350Y-6500D01*
X197100D01*
X197850Y-7250D01*
Y-9500D01*
X192600Y-6500D02*X193350Y-7250D01*
G54D110*X199650Y-5000D02*Y-5150D01*
G54D109*Y-7250D02*Y-9500D01*
X201150Y-3500D02*Y-8750D01*
X201900Y-9500D01*
X206850Y-7250D02*Y-9500D01*
Y-7250D02*X207600Y-6500D01*
X209100D01*
X206100D02*X206850Y-7250D01*
X211650Y-9500D02*X213900D01*
X210900Y-8750D02*X211650Y-9500D01*
X210900Y-7250D02*Y-8750D01*
Y-7250D02*X211650Y-6500D01*
X213150D01*
X213900Y-7250D01*
X210900Y-8000D02*X213900D01*
Y-7250D02*Y-8000D01*
X216450Y-6500D02*X218700D01*
X215700Y-7250D02*X216450Y-6500D01*
X215700Y-7250D02*Y-8750D01*
X216450Y-9500D01*
X218700D01*
X221250Y-3500D02*Y-8750D01*
X222000Y-9500D01*
X220500Y-5750D02*X222000D01*
X225750Y-6500D02*X226500Y-7250D01*
X224250Y-6500D02*X225750D01*
X223500Y-7250D02*X224250Y-6500D01*
X223500Y-7250D02*Y-8750D01*
X224250Y-9500D01*
X226500Y-6500D02*Y-8750D01*
X227250Y-9500D01*
X224250D02*X225750D01*
X226500Y-8750D01*
X229800Y-7250D02*Y-9500D01*
Y-7250D02*X230550Y-6500D01*
X231300D01*
X232050Y-7250D01*
Y-9500D01*
X229050Y-6500D02*X229800Y-7250D01*
X236100Y-6500D02*X236850Y-7250D01*
X234600Y-6500D02*X236100D01*
X233850Y-7250D02*X234600Y-6500D01*
X233850Y-7250D02*Y-8750D01*
X234600Y-9500D01*
X236100D01*
X236850Y-8750D01*
X233850Y-11000D02*X234600Y-11750D01*
X236100D01*
X236850Y-11000D01*
Y-6500D02*Y-11000D01*
X238650Y-3500D02*Y-8750D01*
X239400Y-9500D01*
X241650D02*X243900D01*
X240900Y-8750D02*X241650Y-9500D01*
X240900Y-7250D02*Y-8750D01*
Y-7250D02*X241650Y-6500D01*
X243150D01*
X243900Y-7250D01*
X240900Y-8000D02*X243900D01*
Y-7250D02*Y-8000D01*
X248400Y-6500D02*X251400D01*
X255900Y-8750D02*X256650Y-9500D01*
X255900Y-4250D02*Y-8750D01*
Y-4250D02*X256650Y-3500D01*
X258150D01*
X258900Y-4250D01*
Y-8750D01*
X258150Y-9500D02*X258900Y-8750D01*
X256650Y-9500D02*X258150D01*
X255900Y-8000D02*X258900Y-5000D01*
X260700Y-11000D02*X262200Y-9500D01*
X264000Y-8750D02*X264750Y-9500D01*
X264000Y-4250D02*Y-8750D01*
Y-4250D02*X264750Y-3500D01*
X266250D01*
X267000Y-4250D01*
Y-8750D01*
X266250Y-9500D02*X267000Y-8750D01*
X264750Y-9500D02*X266250D01*
X264000Y-8000D02*X267000Y-5000D01*
X272250Y-3500D02*Y-8750D01*
X273000Y-9500D01*
X271500Y-5750D02*X273000D01*
X274500Y-7250D02*Y-8750D01*
Y-7250D02*X275250Y-6500D01*
X276750D01*
X277500Y-7250D01*
Y-8750D01*
X276750Y-9500D02*X277500Y-8750D01*
X275250Y-9500D02*X276750D01*
X274500Y-8750D02*X275250Y-9500D01*
X282000Y-4250D02*X282750Y-3500D01*
X285000D01*
X285750Y-4250D01*
Y-5750D01*
X282000Y-9500D02*X285750Y-5750D01*
X282000Y-9500D02*X285750D01*
X288300D02*X291300Y-3500D01*
X287550D02*X291300D01*
X293850Y-9500D02*X296100Y-6500D01*
Y-4250D02*Y-6500D01*
X295350Y-3500D02*X296100Y-4250D01*
X293850Y-3500D02*X295350D01*
X293100Y-4250D02*X293850Y-3500D01*
X293100Y-4250D02*Y-5750D01*
X293850Y-6500D01*
X296100D01*
X297900Y-3500D02*X300900D01*
X297900D02*Y-6500D01*
X298650Y-5750D01*
X300150D01*
X300900Y-6500D01*
Y-8750D01*
X300150Y-9500D02*X300900Y-8750D01*
X298650Y-9500D02*X300150D01*
X297900Y-8750D02*X298650Y-9500D01*
X302700D02*X303450D01*
X305250Y-4250D02*X306000Y-3500D01*
X308250D01*
X309000Y-4250D01*
Y-5750D01*
X305250Y-9500D02*X309000Y-5750D01*
X305250Y-9500D02*X309000D01*
X311550D02*X314550Y-3500D01*
X310800D02*X314550D01*
X316350D02*X319350D01*
X316350D02*Y-6500D01*
X317100Y-5750D01*
X318600D01*
X319350Y-6500D01*
Y-8750D01*
X318600Y-9500D02*X319350Y-8750D01*
X317100Y-9500D02*X318600D01*
X316350Y-8750D02*X317100Y-9500D01*
X321150Y-3500D02*X324150D01*
X321150D02*Y-6500D01*
X321900Y-5750D01*
X323400D01*
X324150Y-6500D01*
Y-8750D01*
X323400Y-9500D02*X324150Y-8750D01*
X321900Y-9500D02*X323400D01*
X321150Y-8750D02*X321900Y-9500D01*
X326700D02*X328950Y-6500D01*
Y-4250D02*Y-6500D01*
X328200Y-3500D02*X328950Y-4250D01*
X326700Y-3500D02*X328200D01*
X325950Y-4250D02*X326700Y-3500D01*
X325950Y-4250D02*Y-5750D01*
X326700Y-6500D01*
X328950D01*
X330750Y-4700D02*X331950Y-3500D01*
Y-9500D01*
X330750D02*X333000D01*
X334800Y-11000D02*X336300Y-9500D01*
X338100Y-4700D02*X339300Y-3500D01*
Y-9500D01*
X338100D02*X340350D01*
X342150Y-3500D02*X345150D01*
X342150D02*Y-6500D01*
X342900Y-5750D01*
X344400D01*
X345150Y-6500D01*
Y-8750D01*
X344400Y-9500D02*X345150Y-8750D01*
X342900Y-9500D02*X344400D01*
X342150Y-8750D02*X342900Y-9500D01*
X346950Y-4250D02*X347700Y-3500D01*
X349200D01*
X349950Y-4250D01*
X349200Y-9500D02*X349950Y-8750D01*
X347700Y-9500D02*X349200D01*
X346950Y-8750D02*X347700Y-9500D01*
Y-6200D02*X349200D01*
X349950Y-4250D02*Y-5450D01*
Y-6950D02*Y-8750D01*
Y-6950D02*X349200Y-6200D01*
X349950Y-5450D02*X349200Y-6200D01*
X351750Y-3500D02*X354750D01*
X351750D02*Y-6500D01*
X352500Y-5750D01*
X354000D01*
X354750Y-6500D01*
Y-8750D01*
X354000Y-9500D02*X354750Y-8750D01*
X352500Y-9500D02*X354000D01*
X351750Y-8750D02*X352500Y-9500D01*
X356550D02*X357300D01*
X359100Y-7250D02*X362100Y-3500D01*
X359100Y-7250D02*X362850D01*
X362100Y-3500D02*Y-9500D01*
X364650Y-4250D02*X365400Y-3500D01*
X366900D01*
X367650Y-4250D01*
X366900Y-9500D02*X367650Y-8750D01*
X365400Y-9500D02*X366900D01*
X364650Y-8750D02*X365400Y-9500D01*
Y-6200D02*X366900D01*
X367650Y-4250D02*Y-5450D01*
Y-6950D02*Y-8750D01*
Y-6950D02*X366900Y-6200D01*
X367650Y-5450D02*X366900Y-6200D01*
X369450Y-4250D02*X370200Y-3500D01*
X371700D01*
X372450Y-4250D01*
X371700Y-9500D02*X372450Y-8750D01*
X370200Y-9500D02*X371700D01*
X369450Y-8750D02*X370200Y-9500D01*
Y-6200D02*X371700D01*
X372450Y-4250D02*Y-5450D01*
Y-6950D02*Y-8750D01*
Y-6950D02*X371700Y-6200D01*
X372450Y-5450D02*X371700Y-6200D01*
X374250Y-8750D02*X375000Y-9500D01*
X374250Y-4250D02*Y-8750D01*
Y-4250D02*X375000Y-3500D01*
X376500D01*
X377250Y-4250D01*
Y-8750D01*
X376500Y-9500D02*X377250Y-8750D01*
X375000Y-9500D02*X376500D01*
X374250Y-8000D02*X377250Y-5000D01*
X379800Y-9500D02*X382800Y-3500D01*
X379050D02*X382800D01*
X384600Y-4700D02*X385800Y-3500D01*
Y-9500D01*
X384600D02*X386850D01*
X392100Y-7250D02*Y-9500D01*
Y-7250D02*X392850Y-6500D01*
X393600D01*
X394350Y-7250D01*
Y-9500D01*
Y-7250D02*X395100Y-6500D01*
X395850D01*
X396600Y-7250D01*
Y-9500D01*
X391350Y-6500D02*X392100Y-7250D01*
G54D110*X398400Y-5000D02*Y-5150D01*
G54D109*Y-7250D02*Y-9500D01*
X399900Y-3500D02*Y-8750D01*
X400650Y-9500D01*
X402900D02*X405150D01*
X405900Y-8750D01*
X405150Y-8000D02*X405900Y-8750D01*
X402900Y-8000D02*X405150D01*
X402150Y-7250D02*X402900Y-8000D01*
X402150Y-7250D02*X402900Y-6500D01*
X405150D01*
X405900Y-7250D01*
X402150Y-8750D02*X402900Y-9500D01*
X200750Y182043D02*Y176043D01*
X202700Y182043D02*X203750Y180993D01*
Y177093D01*
X202700Y176043D02*X203750Y177093D01*
X200000Y176043D02*X202700D01*
X200000Y182043D02*X202700D01*
X207800Y179043D02*X208550Y178293D01*
X206300Y179043D02*X207800D01*
X205550Y178293D02*X206300Y179043D01*
X205550Y178293D02*Y176793D01*
X206300Y176043D01*
X208550Y179043D02*Y176793D01*
X209300Y176043D01*
X206300D02*X207800D01*
X208550Y176793D01*
X211850Y182043D02*Y176793D01*
X212600Y176043D01*
X211100Y179793D02*X212600D01*
X214850Y176043D02*X217100D01*
X214100Y176793D02*X214850Y176043D01*
X214100Y178293D02*Y176793D01*
Y178293D02*X214850Y179043D01*
X216350D01*
X217100Y178293D01*
X214100Y177543D02*X217100D01*
Y178293D02*Y177543D01*
X218900Y179793D02*X219650D01*
X218900Y178293D02*X219650D01*
X224150Y182043D02*X227150D01*
X225650D02*Y176043D01*
X228950Y179043D02*Y176793D01*
X229700Y176043D01*
X231200D01*
X231950Y176793D01*
Y179043D02*Y176793D01*
X234500Y176043D02*X236750D01*
X233750Y176793D02*X234500Y176043D01*
X233750Y178293D02*Y176793D01*
Y178293D02*X234500Y179043D01*
X236000D01*
X236750Y178293D01*
X233750Y177543D02*X236750D01*
Y178293D02*Y177543D01*
X241250Y180843D02*X242450Y182043D01*
Y176043D01*
X241250D02*X243500D01*
X245300Y176793D02*X246050Y176043D01*
X245300Y181293D02*Y176793D01*
Y181293D02*X246050Y182043D01*
X247550D01*
X248300Y181293D01*
Y176793D01*
X247550Y176043D02*X248300Y176793D01*
X246050Y176043D02*X247550D01*
X245300Y177543D02*X248300Y180543D01*
X253850Y182043D02*X255050D01*
Y176793D01*
X254300Y176043D02*X255050Y176793D01*
X253550Y176043D02*X254300D01*
X252800Y176793D02*X253550Y176043D01*
X252800Y177543D02*Y176793D01*
X259100Y179043D02*X259850Y178293D01*
X257600Y179043D02*X259100D01*
X256850Y178293D02*X257600Y179043D01*
X256850Y178293D02*Y176793D01*
X257600Y176043D01*
X259850Y179043D02*Y176793D01*
X260600Y176043D01*
X257600D02*X259100D01*
X259850Y176793D01*
X263150Y178293D02*Y176043D01*
Y178293D02*X263900Y179043D01*
X264650D01*
X265400Y178293D01*
Y176043D01*
X262400Y179043D02*X263150Y178293D01*
X269900Y181293D02*X270650Y182043D01*
X272900D01*
X273650Y181293D01*
Y179793D01*
X269900Y176043D02*X273650Y179793D01*
X269900Y176043D02*X273650D01*
X275450Y176793D02*X276200Y176043D01*
X275450Y181293D02*Y176793D01*
Y181293D02*X276200Y182043D01*
X277700D01*
X278450Y181293D01*
Y176793D01*
X277700Y176043D02*X278450Y176793D01*
X276200Y176043D02*X277700D01*
X275450Y177543D02*X278450Y180543D01*
X280250Y180843D02*X281450Y182043D01*
Y176043D01*
X280250D02*X282500D01*
X284300Y181293D02*X285050Y182043D01*
X287300D01*
X288050Y181293D01*
Y179793D01*
X284300Y176043D02*X288050Y179793D01*
X284300Y176043D02*X288050D01*
X292550Y176793D02*X293300Y176043D01*
X292550Y181293D02*Y176793D01*
Y181293D02*X293300Y182043D01*
X294800D01*
X295550Y181293D01*
Y176793D01*
X294800Y176043D02*X295550Y176793D01*
X293300Y176043D02*X294800D01*
X292550Y177543D02*X295550Y180543D01*
X298100Y176043D02*X301100Y182043D01*
X297350D02*X301100D01*
X302900Y179793D02*X303650D01*
X302900Y178293D02*X303650D01*
X305450Y181293D02*X306200Y182043D01*
X307700D01*
X308450Y181293D01*
X307700Y176043D02*X308450Y176793D01*
X306200Y176043D02*X307700D01*
X305450Y176793D02*X306200Y176043D01*
Y179343D02*X307700D01*
X308450Y181293D02*Y180093D01*
Y178593D02*Y176793D01*
Y178593D02*X307700Y179343D01*
X308450Y180093D02*X307700Y179343D01*
X310250Y181293D02*X311000Y182043D01*
X312500D01*
X313250Y181293D01*
X312500Y176043D02*X313250Y176793D01*
X311000Y176043D02*X312500D01*
X310250Y176793D02*X311000Y176043D01*
Y179343D02*X312500D01*
X313250Y181293D02*Y180093D01*
Y178593D02*Y176793D01*
Y178593D02*X312500Y179343D01*
X313250Y180093D02*X312500Y179343D01*
X315050Y179793D02*X315800D01*
X315050Y178293D02*X315800D01*
X317600Y182043D02*X320600D01*
X317600D02*Y179043D01*
X318350Y179793D01*
X319850D01*
X320600Y179043D01*
Y176793D01*
X319850Y176043D02*X320600Y176793D01*
X318350Y176043D02*X319850D01*
X317600Y176793D02*X318350Y176043D01*
X322400Y181293D02*X323150Y182043D01*
X324650D01*
X325400Y181293D01*
X324650Y176043D02*X325400Y176793D01*
X323150Y176043D02*X324650D01*
X322400Y176793D02*X323150Y176043D01*
Y179343D02*X324650D01*
X325400Y181293D02*Y180093D01*
Y178593D02*Y176793D01*
Y178593D02*X324650Y179343D01*
X325400Y180093D02*X324650Y179343D01*
X330650Y182043D02*Y176043D01*
X329900Y182043D02*X332900D01*
X333650Y181293D01*
Y179793D01*
X332900Y179043D02*X333650Y179793D01*
X330650Y179043D02*X332900D01*
X335450Y182043D02*Y176043D01*
Y182043D02*X337700Y179043D01*
X339950Y182043D01*
Y176043D01*
X347450Y182043D02*X348200Y181293D01*
X345200Y182043D02*X347450D01*
X344450Y181293D02*X345200Y182043D01*
X344450Y181293D02*Y176793D01*
X345200Y176043D01*
X347450D01*
X348200Y176793D01*
Y178293D02*Y176793D01*
X347450Y179043D02*X348200Y178293D01*
X345950Y179043D02*X347450D01*
X350000Y182043D02*Y176043D01*
Y182043D02*X352250Y179043D01*
X354500Y182043D01*
Y176043D01*
X356300Y182043D02*X359300D01*
X357800D02*Y176043D01*
X363800Y182043D02*Y176793D01*
X364550Y176043D01*
X366050D01*
X366800Y176793D01*
Y182043D02*Y176793D01*
X368600Y182043D02*X371600D01*
X370100D02*Y176043D01*
X374450D02*X376400D01*
X373400Y177093D02*X374450Y176043D01*
X373400Y180993D02*Y177093D01*
Y180993D02*X374450Y182043D01*
X376400D01*
X200000Y195543D02*Y191043D01*
Y195543D02*X201050Y197043D01*
X202700D01*
X203750Y195543D01*
Y191043D01*
X200000Y194043D02*X203750D01*
X205550D02*Y191793D01*
X206300Y191043D01*
X207800D01*
X208550Y191793D01*
Y194043D02*Y191793D01*
X211100Y197043D02*Y191793D01*
X211850Y191043D01*
X210350Y194793D02*X211850D01*
X213350Y197043D02*Y191043D01*
Y193293D02*X214100Y194043D01*
X215600D01*
X216350Y193293D01*
Y191043D01*
X218150Y193293D02*Y191793D01*
Y193293D02*X218900Y194043D01*
X220400D01*
X221150Y193293D01*
Y191793D01*
X220400Y191043D02*X221150Y191793D01*
X218900Y191043D02*X220400D01*
X218150Y191793D02*X218900Y191043D01*
X223700Y193293D02*Y191043D01*
Y193293D02*X224450Y194043D01*
X225950D01*
X222950D02*X223700Y193293D01*
X227750Y194793D02*X228500D01*
X227750Y193293D02*X228500D01*
X235250Y194043D02*X236000Y193293D01*
X233750Y194043D02*X235250D01*
X233000Y193293D02*X233750Y194043D01*
X233000Y193293D02*Y191793D01*
X233750Y191043D01*
X236000Y194043D02*Y191793D01*
X236750Y191043D01*
X233750D02*X235250D01*
X236000Y191793D01*
X239300Y193293D02*Y191043D01*
Y193293D02*X240050Y194043D01*
X240800D01*
X241550Y193293D01*
Y191043D01*
X238550Y194043D02*X239300Y193293D01*
X246350Y197043D02*Y191043D01*
X245600D02*X246350Y191793D01*
X244100Y191043D02*X245600D01*
X243350Y191793D02*X244100Y191043D01*
X243350Y193293D02*Y191793D01*
Y193293D02*X244100Y194043D01*
X245600D01*
X246350Y193293D01*
X248150Y194043D02*Y191793D01*
X248900Y191043D01*
X251150Y194043D02*Y189543D01*
X250400Y188793D02*X251150Y189543D01*
X248900Y188793D02*X250400D01*
X248150Y189543D02*X248900Y188793D01*
Y191043D02*X250400D01*
X251150Y191793D01*
X200000Y212043D02*X203000D01*
X201500D02*Y206043D01*
G54D110*X204800Y210543D02*Y210393D01*
G54D109*Y208293D02*Y206043D01*
X207050Y212043D02*Y206793D01*
X207800Y206043D01*
X206300Y209793D02*X207800D01*
X209300Y212043D02*Y206793D01*
X210050Y206043D01*
X212300D02*X214550D01*
X211550Y206793D02*X212300Y206043D01*
X211550Y208293D02*Y206793D01*
Y208293D02*X212300Y209043D01*
X213800D01*
X214550Y208293D01*
X211550Y207543D02*X214550D01*
Y208293D02*Y207543D01*
X216350Y209793D02*X217100D01*
X216350Y208293D02*X217100D01*
X221600Y206793D02*X222350Y206043D01*
X221600Y211293D02*X222350Y212043D01*
X221600Y211293D02*Y206793D01*
X224150Y209043D02*Y206793D01*
X224900Y206043D01*
X226400D01*
X227150Y206793D01*
Y209043D02*Y206793D01*
X229700Y208293D02*Y206043D01*
Y208293D02*X230450Y209043D01*
X231200D01*
X231950Y208293D01*
Y206043D01*
X228950Y209043D02*X229700Y208293D01*
X233750Y212043D02*Y206043D01*
Y208293D02*X236000Y206043D01*
X233750Y208293D02*X235250Y209793D01*
X238550Y208293D02*Y206043D01*
Y208293D02*X239300Y209043D01*
X240050D01*
X240800Y208293D01*
Y206043D01*
X237800Y209043D02*X238550Y208293D01*
X242600D02*Y206793D01*
Y208293D02*X243350Y209043D01*
X244850D01*
X245600Y208293D01*
Y206793D01*
X244850Y206043D02*X245600Y206793D01*
X243350Y206043D02*X244850D01*
X242600Y206793D02*X243350Y206043D01*
X247400Y209043D02*Y206793D01*
X248150Y206043D01*
X248900D01*
X249650Y206793D01*
Y209043D02*Y206793D01*
X250400Y206043D01*
X251150D01*
X251900Y206793D01*
Y209043D02*Y206793D01*
X254450Y208293D02*Y206043D01*
Y208293D02*X255200Y209043D01*
X255950D01*
X256700Y208293D01*
Y206043D01*
X253700Y209043D02*X254450Y208293D01*
X258500Y212043D02*X259250Y211293D01*
Y206793D01*
X258500Y206043D02*X259250Y206793D01*
X263750Y209043D02*X266750D01*
X271250Y212043D02*Y206043D01*
Y212043D02*X274250D01*
X271250Y209343D02*X273500D01*
X278300Y209043D02*X279050Y208293D01*
X276800Y209043D02*X278300D01*
X276050Y208293D02*X276800Y209043D01*
X276050Y208293D02*Y206793D01*
X276800Y206043D01*
X279050Y209043D02*Y206793D01*
X279800Y206043D01*
X276800D02*X278300D01*
X279050Y206793D01*
X281600Y212043D02*Y206043D01*
Y206793D02*X282350Y206043D01*
X283850D01*
X284600Y206793D01*
Y208293D02*Y206793D01*
X283850Y209043D02*X284600Y208293D01*
X282350Y209043D02*X283850D01*
X281600Y208293D02*X282350Y209043D01*
X287150Y208293D02*Y206043D01*
Y208293D02*X287900Y209043D01*
X289400D01*
X286400D02*X287150Y208293D01*
G54D110*X291200Y210543D02*Y210393D01*
G54D109*Y208293D02*Y206043D01*
X293450Y209043D02*X295700D01*
X292700Y208293D02*X293450Y209043D01*
X292700Y208293D02*Y206793D01*
X293450Y206043D01*
X295700D01*
X299750Y209043D02*X300500Y208293D01*
X298250Y209043D02*X299750D01*
X297500Y208293D02*X298250Y209043D01*
X297500Y208293D02*Y206793D01*
X298250Y206043D01*
X300500Y209043D02*Y206793D01*
X301250Y206043D01*
X298250D02*X299750D01*
X300500Y206793D01*
X303800Y212043D02*Y206793D01*
X304550Y206043D01*
X303050Y209793D02*X304550D01*
G54D110*X306050Y210543D02*Y210393D01*
G54D109*Y208293D02*Y206043D01*
X307550Y208293D02*Y206793D01*
Y208293D02*X308300Y209043D01*
X309800D01*
X310550Y208293D01*
Y206793D01*
X309800Y206043D02*X310550Y206793D01*
X308300Y206043D02*X309800D01*
X307550Y206793D02*X308300Y206043D01*
X313100Y208293D02*Y206043D01*
Y208293D02*X313850Y209043D01*
X314600D01*
X315350Y208293D01*
Y206043D01*
X312350Y209043D02*X313100Y208293D01*
X320600Y212043D02*Y206043D01*
X322550Y212043D02*X323600Y210993D01*
Y207093D01*
X322550Y206043D02*X323600Y207093D01*
X319850Y206043D02*X322550D01*
X319850Y212043D02*X322550D01*
X326150Y208293D02*Y206043D01*
Y208293D02*X326900Y209043D01*
X328400D01*
X325400D02*X326150Y208293D01*
X332450Y209043D02*X333200Y208293D01*
X330950Y209043D02*X332450D01*
X330200Y208293D02*X330950Y209043D01*
X330200Y208293D02*Y206793D01*
X330950Y206043D01*
X333200Y209043D02*Y206793D01*
X333950Y206043D01*
X330950D02*X332450D01*
X333200Y206793D01*
X335750Y209043D02*Y206793D01*
X336500Y206043D01*
X337250D01*
X338000Y206793D01*
Y209043D02*Y206793D01*
X338750Y206043D01*
X339500D01*
X340250Y206793D01*
Y209043D02*Y206793D01*
G54D110*X342050Y210543D02*Y210393D01*
G54D109*Y208293D02*Y206043D01*
X344300Y208293D02*Y206043D01*
Y208293D02*X345050Y209043D01*
X345800D01*
X346550Y208293D01*
Y206043D01*
X343550Y209043D02*X344300Y208293D01*
X350600Y209043D02*X351350Y208293D01*
X349100Y209043D02*X350600D01*
X348350Y208293D02*X349100Y209043D01*
X348350Y208293D02*Y206793D01*
X349100Y206043D01*
X350600D01*
X351350Y206793D01*
X348350Y204543D02*X349100Y203793D01*
X350600D01*
X351350Y204543D01*
Y209043D02*Y204543D01*
M02*
