G04 start of page 2 for group 0 idx 0 *
G04 Title: (unknown), component *
G04 Creator: pcb 20110918 *
G04 CreationDate: Tue 10 Jan 2012 07:33:53 PM GMT UTC *
G04 For: andy *
G04 Format: Gerber/RS-274X *
G04 PCB-Dimensions: 279528 153543 *
G04 PCB-Coordinate-Origin: lower left *
%MOIN*%
%FSLAX25Y25*%
%LNTOP*%
%ADD31C,0.0380*%
%ADD30C,0.0350*%
%ADD29C,0.0360*%
%ADD28R,0.0550X0.0550*%
%ADD27R,0.0800X0.0800*%
%ADD26R,0.0600X0.0600*%
%ADD25R,0.0157X0.0157*%
%ADD24R,0.0300X0.0300*%
%ADD23R,0.0200X0.0200*%
%ADD22R,0.1102X0.1102*%
%ADD21R,0.0512X0.0512*%
%ADD20R,0.0315X0.0315*%
%ADD19R,0.0295X0.0295*%
%ADD18R,0.0394X0.0394*%
%ADD17R,0.0276X0.0276*%
%ADD16C,0.0600*%
%ADD15C,0.0001*%
%ADD14C,0.0400*%
%ADD13C,0.0100*%
%ADD12C,0.0200*%
%ADD11C,0.0250*%
G54D11*X242441Y48543D02*X230860D01*
X242500Y68543D02*X230860D01*
X247618Y88543D02*Y48602D01*
X267500Y36043D02*X263780Y32323D01*
X267500Y31043D02*X266280Y29823D01*
X267500Y36043D02*Y27443D01*
G54D12*X267441Y81043D02*Y88484D01*
X267500Y88543D01*
X270000Y133543D02*X272500D01*
X277500Y128543D01*
Y93484D01*
X272559Y88543D01*
Y81043D01*
G54D11*X270450Y27443D02*X268659D01*
X247618Y48602D02*X247500Y48484D01*
X240000Y36043D02*Y27893D01*
X239550Y27443D01*
X268659D02*X247559Y48543D01*
X267500Y36043D02*X260059D01*
X267500Y31043D02*X262500Y36043D01*
X252500Y43602D02*X247500Y48484D01*
G54D12*X234550Y27443D02*X238900D01*
X240000Y28543D01*
G54D11*X100690Y16043D02*X89538D01*
X112500D02*X122382D01*
X127500D02*X136640D01*
G54D13*X79538Y61043D02*Y56043D01*
G54D11*Y60581D01*
G54D14*Y61043D02*Y56505D01*
G54D11*X95000Y61043D02*X79538D01*
G54D13*X92500Y86043D02*Y81043D01*
X75000D01*
X60000Y66043D01*
Y56043D01*
X65000Y51043D01*
X79538D01*
G54D11*X89538Y16043D02*X79538Y26043D01*
X100690Y31043D02*X79538D01*
X112500Y16043D02*Y43543D01*
X92500Y36043D02*X79538D01*
X92500Y41043D02*X79538D01*
Y46043D02*X90000D01*
X100000Y71043D02*X109750D01*
X122500Y68543D02*X125000Y66043D01*
X122500Y86043D02*Y53543D01*
X125000Y66043D02*X122500Y63543D01*
X125000Y66043D02*X130250D01*
X100000Y63543D02*X102500Y66043D01*
X109750D01*
X95000Y73543D02*X97500Y76043D01*
Y81043D01*
X90000Y46043D02*X100000Y56043D01*
X105000Y46043D02*X110000Y51043D01*
X102500D02*X92500Y41043D01*
X100000Y56043D02*Y63543D01*
Y31043D02*Y33543D01*
X105000Y38543D01*
Y46043D01*
X112500Y43543D02*X122500Y53543D01*
X110000Y51043D02*Y55793D01*
Y51043D02*Y51293D01*
X120000Y38543D02*X117500D01*
X112500Y33543D01*
X117500Y38543D02*X112500Y43543D01*
X115000Y36043D02*Y41043D01*
X127500Y46043D02*X132441D01*
X109750Y81043D02*X97618D01*
G54D13*X109750Y76043D02*X115000D01*
X117500Y78543D01*
Y86043D01*
X150315D02*X160000D01*
X117500D02*X112500Y91043D01*
X97500D01*
X92500Y86043D01*
G54D11*X130000D02*X122500D01*
X102500Y106043D01*
G54D14*X130250Y81043D02*Y85793D01*
X130000Y86043D01*
G54D13*X62362Y135197D02*X69154D01*
X77500Y143543D01*
X90000D01*
X62362Y139528D02*X63485D01*
X75000Y151043D01*
X110000D01*
X112500Y126043D02*Y148543D01*
X110000Y151043D01*
G54D11*X102324Y130867D02*X102500Y131043D01*
X107500Y121043D02*Y136043D01*
X62362Y126536D02*X87007D01*
X87500Y126043D01*
X62362Y130867D02*X102324D01*
X62362Y122205D02*X71338D01*
X72500Y121043D01*
X107500D01*
X62362Y117874D02*X68169D01*
X70000Y116043D01*
X117500D01*
X130000Y146043D02*X132500Y148543D01*
G54D13*X142500Y143543D02*X147500Y138543D01*
X155000D01*
G54D11*X130000Y136043D02*Y146043D01*
X132500Y148543D02*X147500D01*
G54D13*X160000D02*X167500D01*
G54D11*X147500D02*X152500Y143543D01*
G54D13*X155000Y138543D02*X157500Y141043D01*
Y146043D01*
X160000Y148543D01*
X167500D02*X172500Y143543D01*
G54D11*X130000Y128543D02*X137500D01*
X142500Y133543D01*
X130000Y121043D02*X137500D01*
G54D12*X140000D01*
G54D13*X115118Y123425D02*X112500Y126043D01*
G54D11*X117500Y128543D02*X124882D01*
X117500Y136043D02*X124882D01*
G54D13*X115118Y123425D02*X122382D01*
X125000Y111043D02*X130000Y106043D01*
G54D11*X140000Y121043D02*X152500Y133543D01*
G54D13*X125000Y118425D02*X124882Y118543D01*
X125000Y111043D02*Y118543D01*
Y118425D02*Y120984D01*
X124941Y121043D01*
X124764D01*
X122382Y123425D01*
G54D11*X130250Y86043D02*X200000D01*
X175000D02*X175649D01*
X178149Y97894D02*X175000Y101043D01*
G54D13*X191851Y89192D02*X178150Y102893D01*
X178750Y102293D01*
G54D11*X191851Y89192D02*X187500Y93543D01*
X178149Y89192D02*X175000Y86043D01*
X178149Y88543D02*Y87894D01*
X180000Y86043D01*
X180048Y87293D02*X178149Y89192D01*
X181250Y87293D02*X180048D01*
X199351Y89192D02*X191851D01*
G54D13*X150315Y89193D02*X144350D01*
X142500Y91043D01*
X150315Y92343D02*X156300D01*
X157500Y93543D01*
X150315Y76595D02*X154448D01*
X139000Y75043D02*X144500D01*
X146000Y73543D01*
X154448Y76595D02*X155000Y76043D01*
Y66043D02*X150000Y61043D01*
G54D11*X150315Y79744D02*X163799D01*
X165000Y78543D01*
G54D13*X155000Y76043D02*Y66043D01*
Y111043D02*Y106043D01*
X150315Y101791D02*Y105728D01*
Y98642D02*X147401D01*
X150315Y95492D02*X143051D01*
X155000Y106043D02*X157500Y103543D01*
Y93543D01*
X150315Y82894D02*X146851D01*
X142500Y78543D01*
X150315Y105728D02*X147500Y108543D01*
X147401Y98642D02*X140000Y106043D01*
X143051Y95492D02*X142500Y96043D01*
G54D11*X157500Y116043D02*X145000D01*
X140000Y111043D01*
X135000D01*
G54D13*X140000Y106043D02*X130000D01*
X150000Y61043D02*X130250D01*
Y71043D02*X135000D01*
X140000Y66043D01*
X130250Y76043D02*X138000D01*
X139000Y75043D01*
G54D11*X136640Y16043D02*X139140Y13543D01*
X217500Y17343D02*X211200Y11043D01*
X152500Y15183D02*X150860Y13543D01*
X167500Y31043D02*Y17343D01*
X173800Y11043D01*
X152500Y33543D02*Y15183D01*
X167500Y31043D02*X162500D01*
X152500Y33543D02*X157500D01*
X212382Y31043D02*Y30925D01*
X217500Y17343D02*Y33543D01*
X212382Y30925D02*X207500Y26043D01*
X202500Y31043D01*
X192500Y26043D02*Y13543D01*
X210000Y28543D02*X205000D01*
X219140Y48543D02*Y45183D01*
X215000Y41043D01*
X212500D01*
X219140Y60183D02*X210000Y51043D01*
Y48543D01*
X217500Y33543D02*X215000Y36043D01*
X212500Y41043D02*X210000D01*
X215000Y36043D02*X205000D01*
X197500Y43543D01*
Y51043D01*
X202500Y56043D01*
X212500Y61043D02*Y73543D01*
G54D13*X146000D02*X150217D01*
X150315Y73445D01*
Y70295D02*X143248D01*
X142500Y71043D01*
G54D11*X137559Y46043D02*X142500D01*
Y53543D01*
X145000Y56043D01*
X150000D01*
X155000Y61043D01*
X212382Y31043D02*X172618D01*
X187500Y46043D02*Y31043D01*
G54D13*X192500Y48543D02*Y36043D01*
G54D11*X185000Y31043D02*X187500Y33543D01*
X190000Y31043D01*
X172441Y38543D02*X167500D01*
G54D12*X171850Y47893D02*X171650Y47693D01*
G54D11*X178149Y55394D02*X187500Y46043D01*
X175000Y61358D02*Y51043D01*
G54D13*X184448Y61358D02*Y56595D01*
X192500Y48543D01*
G54D12*X171850Y61358D02*Y47893D01*
G54D11*X175000Y51043D02*X177500Y48543D01*
Y43661D01*
X177559Y38543D01*
X171850Y47893D02*X167500Y43543D01*
X157500Y33543D02*X162500Y38543D01*
Y41043D01*
X165000Y43543D01*
X167500D01*
X155000Y61043D02*X158937D01*
X159252Y61358D01*
X162401D02*Y55944D01*
X161400Y46543D02*Y54942D01*
X164600Y53543D02*Y49443D01*
X166100Y47943D02*X164600Y49443D01*
X161400Y54942D02*X162401Y55943D01*
X165551Y61358D02*Y54494D01*
X164700Y53643D01*
G54D12*X168700Y61358D02*Y52043D01*
X168500Y51843D01*
G54D13*X199685Y92342D02*X203799D01*
X210000Y98543D01*
Y111043D02*Y98543D01*
G54D11*X218702Y114745D02*Y99745D01*
X212500Y93543D01*
Y88543D01*
X206850Y82893D01*
X210000Y86043D02*X206851Y89192D01*
X210000D02*X209999D01*
X206850Y86043D01*
X199685Y89192D02*X211851D01*
X212500Y88543D01*
X206850Y82893D02*Y89191D01*
X206851Y89192D01*
X219140Y88543D02*Y80183D01*
X212500Y73543D02*X219140Y80183D01*
G54D12*X211000Y78543D02*X210000D01*
G54D11*X199685Y73444D02*X202401D01*
X202599D02*X204901D01*
X210000Y78543D01*
D03*
G54D12*X209600Y78143D01*
G54D13*X181300Y110728D02*Y139743D01*
G54D11*X175000Y101043D02*Y118543D01*
G54D13*X178150Y110728D02*Y112893D01*
Y110728D02*Y132893D01*
Y110393D02*Y102893D01*
X199685Y98641D02*X202598D01*
X205000Y101043D01*
Y121043D01*
X199685Y95491D02*X201948D01*
X207500Y101043D02*Y113543D01*
G54D11*X199685Y101791D02*Y125728D01*
G54D13*X181300Y139743D02*X177500Y143543D01*
G54D11*X167500D02*X170000Y141043D01*
X167500Y143543D02*X162500D01*
X170000Y141043D02*Y123543D01*
G54D13*X172500Y143543D02*Y138543D01*
X178150Y132893D01*
X184449Y110728D02*Y140492D01*
X187599Y110728D02*Y133642D01*
X190748Y110728D02*Y126791D01*
X184449Y140492D02*X187500Y143543D01*
X187599Y133642D02*X197500Y143543D01*
X190748Y126791D02*X207500Y143543D01*
G54D11*X170000Y123543D02*X175000Y118543D01*
X159252Y110728D02*Y114291D01*
X157500Y116043D01*
X242500Y88543D02*X230860D01*
X242500Y108543D02*X230860D01*
X247618D02*Y88425D01*
X247736Y88543D02*X247618Y88425D01*
X265000Y118543D02*X270000Y123543D01*
X247500Y118543D02*X252500Y113543D01*
X260000D01*
X267441Y88543D02*X247736D01*
X270000Y96043D02*X267500Y93543D01*
Y88602D01*
X267441Y88543D01*
X265000D02*X267500Y91043D01*
X262500Y96043D02*Y93543D01*
X270000Y103543D02*Y96043D01*
X265000Y98543D02*X262500Y96043D01*
X265000Y98543D02*Y118543D01*
G54D13*X201948Y95491D02*X207500Y101043D01*
X190000Y86043D02*X199685D01*
Y82893D02*X204350D01*
X205000Y83543D01*
G54D11*X175649Y86043D02*X178149Y83543D01*
Y97894D02*Y55394D01*
Y83543D02*Y84192D01*
X181250Y87293D01*
X200000Y82893D02*X206850D01*
X199685Y70295D02*X206752D01*
X197500Y63543D02*X192933D01*
X190748Y61358D01*
X202500Y56043D02*Y58543D01*
X206850Y82893D02*X207500Y83543D01*
X219140Y68543D02*Y60183D01*
X212500Y61043D02*X210000Y58543D01*
X206752Y70295D02*X207500Y68543D01*
X237500Y83543D02*Y73543D01*
X187598Y61358D02*Y68641D01*
X190000Y71043D01*
X175000Y61043D02*Y68543D01*
X172500Y71043D01*
G54D13*X207500Y113543D02*X237500Y143543D01*
X210000Y111043D02*X230000Y131043D01*
X235000D01*
G54D11*X218702Y114745D02*X222500Y118543D01*
X247500D01*
G54D13*X205000Y121043D02*X227500Y143543D01*
X235000Y131043D02*X247500Y143543D01*
G54D11*X199685Y125728D02*X217500Y143543D01*
G54D15*G36*
X87000Y146543D02*Y140543D01*
X93000D01*
Y146543D01*
X87000D01*
G37*
G54D16*X100000Y143543D03*
G54D15*G36*
X89500Y109043D02*Y103043D01*
X95500D01*
Y109043D01*
X89500D01*
G37*
G54D16*X102500Y106043D03*
X112500D03*
X122500D03*
G54D15*G36*
X139500Y136543D02*Y130543D01*
X145500D01*
Y136543D01*
X139500D01*
G37*
G54D16*X142500Y143543D03*
X152500Y133543D03*
Y143543D03*
X162500Y133543D03*
Y143543D03*
G54D15*G36*
X174500Y146543D02*Y140543D01*
X180500D01*
Y146543D01*
X174500D01*
G37*
G54D16*X187500Y143543D03*
X197500D03*
X207500D03*
X217500D03*
X227500D03*
X237500D03*
X247500D03*
G54D15*G36*
X257000Y146543D02*Y140543D01*
X263000D01*
Y146543D01*
X257000D01*
G37*
G54D16*X270000Y143543D03*
X260000Y133543D03*
X270000D03*
X260000Y123543D03*
X270000D03*
X260000Y113543D03*
X270000D03*
X260000Y103543D03*
X270000D03*
G54D17*X61378Y113544D02*X63347D01*
X61378Y117874D02*X63347D01*
X61378Y122205D02*X63347D01*
X61378Y126536D02*X63347D01*
X61378Y130867D02*X63347D01*
G54D18*X61969Y107442D02*X62757D01*
G54D17*X61378Y135197D02*X63347D01*
X61378Y139528D02*X63347D01*
X61378Y143859D02*X63347D01*
X61378Y148190D02*X63347D01*
G54D19*X124882Y136535D02*Y135551D01*
X130000Y136535D02*Y135551D01*
X124882Y129035D02*Y128051D01*
X130000Y129035D02*Y128051D01*
X124941Y121535D02*Y120551D01*
X130059Y121535D02*Y120551D01*
G54D20*X21024Y151732D02*Y150946D01*
G54D18*X45040Y151339D02*X45828D01*
X1142Y151338D02*X8230D01*
G54D21*X1731Y98189D02*X4094D01*
G54D22*X35079Y79960D02*Y70708D01*
G54D21*X100690Y18798D02*Y13288D01*
X112500Y18798D02*Y13288D01*
Y33798D02*Y28288D01*
X100690Y33798D02*Y28288D01*
G54D23*X106500Y56043D02*X113000D01*
X106500Y86043D02*X113000D01*
X106500Y81043D02*X113000D01*
X106500Y76043D02*X113000D01*
X106500Y71043D02*X113000D01*
X106500Y66043D02*X113000D01*
X106500Y61043D02*X113000D01*
G54D19*X92500Y81535D02*Y80551D01*
X97618Y81535D02*Y80551D01*
G54D22*X35079Y16378D02*Y7126D01*
G54D24*X72033Y26043D02*X87043D01*
X72033Y31043D02*X87043D01*
X72033Y36043D02*X87043D01*
X72033Y41043D02*X87043D01*
X72033Y46043D02*X87043D01*
X72033Y51043D02*X87043D01*
X72033Y56043D02*X87043D01*
X72033Y61043D02*X87043D01*
G54D25*X148102Y76595D02*X152528D01*
X148102Y73445D02*X152528D01*
X148102Y70295D02*X152528D01*
X159252Y63571D02*Y59145D01*
G54D19*X137559Y46535D02*Y45551D01*
X132441Y46535D02*Y45551D01*
G54D26*X139140Y15661D02*Y11425D01*
G54D19*X127500Y16535D02*Y15551D01*
X122382Y16535D02*Y15551D01*
G54D26*X150860Y15661D02*Y11425D01*
G54D27*X166800Y11043D02*X180800D01*
G54D19*X167500Y31535D02*Y30551D01*
X172618Y31535D02*Y30551D01*
X172441Y39035D02*Y38051D01*
X177559Y39035D02*Y38051D01*
G54D25*X148102Y92343D02*X152528D01*
X148102Y89193D02*X152528D01*
X148102Y86043D02*X152528D01*
X148102Y82894D02*X152528D01*
X148102Y101791D02*X152528D01*
X148102Y98642D02*X152528D01*
X148102Y95492D02*X152528D01*
X148102Y79744D02*X152528D01*
X162401Y63571D02*Y59145D01*
X165551Y63571D02*Y59145D01*
X168700Y63571D02*Y59145D01*
X171850Y63571D02*Y59145D01*
X175000Y63571D02*Y59145D01*
X178149Y63571D02*Y59145D01*
X181299Y63571D02*Y59145D01*
X184448Y63571D02*Y59145D01*
X187598Y63571D02*Y59145D01*
X190748Y63571D02*Y59145D01*
G54D23*X127000Y56043D02*X133500D01*
X127000Y61043D02*X133500D01*
X127000Y66043D02*X133500D01*
X127000Y71043D02*X133500D01*
X127000Y76043D02*X133500D01*
X127000Y81043D02*X133500D01*
X127000Y86043D02*X133500D01*
G54D25*X197472Y70295D02*X201898D01*
X197472Y73444D02*X201898D01*
X197472Y76594D02*X201898D01*
G54D26*X230860Y70661D02*Y66425D01*
X219140Y70661D02*Y66425D01*
G54D25*X197472Y79743D02*X201898D01*
X197472Y82893D02*X201898D01*
X197472Y86043D02*X201898D01*
X197472Y89192D02*X201898D01*
X197472Y92342D02*X201898D01*
X197472Y95491D02*X201898D01*
X197472Y98641D02*X201898D01*
X197472Y101791D02*X201898D01*
X190748Y112941D02*Y108515D01*
G54D26*X230860Y110661D02*Y106425D01*
X219140Y110661D02*Y106425D01*
G54D25*X187599Y112941D02*Y108515D01*
X184449Y112941D02*Y108515D01*
X181300Y112941D02*Y108515D01*
X178150Y112941D02*Y108515D01*
X175000Y112941D02*Y108515D01*
X171851Y112941D02*Y108515D01*
X168701Y112941D02*Y108515D01*
X165552Y112941D02*Y108515D01*
X162402Y112941D02*Y108515D01*
X159252Y112941D02*Y108515D01*
G54D27*X204200Y11043D02*X218200D01*
G54D28*X233150Y9643D02*X235950D01*
G54D26*X230860Y50661D02*Y46425D01*
X219140Y50661D02*Y46425D01*
G54D28*X269050Y27443D02*X271850D01*
X269050Y9643D02*X271850D01*
G54D19*X242441Y49035D02*Y48051D01*
X247559Y49035D02*Y48051D01*
X217500Y31535D02*Y30551D01*
X212382Y31535D02*Y30551D01*
G54D28*X233150Y27443D02*X235950D01*
G54D19*X242500Y109035D02*Y108051D01*
X247618Y109035D02*Y108051D01*
G54D26*X230860Y90661D02*Y86425D01*
X219140Y90661D02*Y86425D01*
G54D19*X242500Y89035D02*Y88051D01*
Y69035D02*Y68051D01*
X247618Y69035D02*Y68051D01*
X267441Y89035D02*Y88051D01*
X272559Y89035D02*Y88051D01*
X247618Y89035D02*Y88051D01*
X267441Y81535D02*Y80551D01*
X272559Y81535D02*Y80551D01*
G54D29*X187500Y93543D03*
X155000Y111043D03*
X157500Y93543D03*
X117500Y136043D03*
Y128543D03*
G54D16*X87500Y126043D03*
G54D29*X102500Y131043D03*
X107500Y136043D03*
G54D16*X165000Y78543D03*
G54D29*X142500D03*
X147500Y108543D03*
X142500Y96043D03*
Y91043D03*
X135000Y111043D03*
X117500Y116043D03*
G54D16*X262500Y93543D03*
X240000Y36043D03*
G54D29*X237500Y73543D03*
Y83543D03*
X172500Y71043D03*
G54D16*X202500Y58543D03*
X210000Y48543D03*
G54D29*X190000Y71043D03*
X207500Y68543D03*
X197500Y63543D03*
X211000Y78543D03*
G54D16*X210000Y58543D03*
X207500Y26043D03*
X267500Y36043D03*
G54D29*X192500D03*
Y26043D03*
Y13543D03*
G54D16*X210000Y41043D03*
X95000Y61043D03*
G54D29*X110000Y51043D03*
X95000Y73543D03*
X102500Y51043D03*
X100000Y71043D03*
X140000Y66043D03*
G54D16*X120000Y38543D03*
G54D29*X92500Y36043D03*
X127500Y46043D03*
X142500Y71043D03*
X167500Y38543D03*
X162500Y31043D03*
X142500Y46043D03*
X161400Y46543D03*
X166000Y47943D03*
X168500Y51843D03*
G54D12*G54D30*G54D12*G54D30*G54D12*G54D30*G54D12*G54D30*G54D12*G54D30*G54D12*G54D30*G54D12*G54D30*G54D12*G54D31*M02*
